<svg width="235" height="27" viewBox="0 0 235 27" fill="none" xmlns="http://www.w3.org/2000/svg">
<path d="M3.756 18.144C3.092 18.144 2.448 18.056 1.824 17.88C1.208 17.696 0.712 17.46 0.336 17.172L0.996 15.708C1.356 15.972 1.784 16.184 2.28 16.344C2.776 16.504 3.272 16.584 3.768 16.584C4.32 16.584 4.728 16.504 4.992 16.344C5.256 16.176 5.388 15.956 5.388 15.684C5.388 15.484 5.308 15.32 5.148 15.192C4.996 15.056 4.796 14.948 4.548 14.868C4.308 14.788 3.98 14.7 3.564 14.604C2.924 14.452 2.4 14.3 1.992 14.148C1.584 13.996 1.232 13.752 0.936 13.416C0.648 13.08 0.504 12.632 0.504 12.072C0.504 11.584 0.636 11.144 0.9 10.752C1.164 10.352 1.56 10.036 2.088 9.804C2.624 9.572 3.276 9.456 4.044 9.456C4.58 9.456 5.104 9.52 5.616 9.648C6.128 9.776 6.576 9.96 6.96 10.2L6.36 11.676C5.584 11.236 4.808 11.016 4.032 11.016C3.488 11.016 3.084 11.104 2.82 11.28C2.564 11.456 2.436 11.688 2.436 11.976C2.436 12.264 2.584 12.48 2.88 12.624C3.184 12.76 3.644 12.896 4.26 13.032C4.9 13.184 5.424 13.336 5.832 13.488C6.24 13.64 6.588 13.88 6.876 14.208C7.172 14.536 7.32 14.98 7.32 15.54C7.32 16.02 7.184 16.46 6.912 16.86C6.648 17.252 6.248 17.564 5.712 17.796C5.176 18.028 4.524 18.144 3.756 18.144ZM8.51634 11.544H10.3883V18H8.51634V11.544ZM9.45234 10.644C9.10834 10.644 8.82834 10.544 8.61234 10.344C8.39634 10.144 8.28834 9.896 8.28834 9.6C8.28834 9.304 8.39634 9.056 8.61234 8.856C8.82834 8.656 9.10834 8.556 9.45234 8.556C9.79634 8.556 10.0763 8.652 10.2923 8.844C10.5083 9.036 10.6163 9.276 10.6163 9.564C10.6163 9.876 10.5083 10.136 10.2923 10.344C10.0763 10.544 9.79634 10.644 9.45234 10.644ZM18.7857 11.544V16.92C18.7857 18.104 18.4777 18.984 17.8617 19.56C17.2457 20.136 16.3457 20.424 15.1617 20.424C14.5377 20.424 13.9457 20.348 13.3857 20.196C12.8257 20.044 12.3617 19.824 11.9937 19.536L12.7377 18.192C13.0097 18.416 13.3537 18.592 13.7697 18.72C14.1857 18.856 14.6017 18.924 15.0177 18.924C15.6657 18.924 16.1417 18.776 16.4457 18.48C16.7577 18.192 16.9137 17.752 16.9137 17.16V16.884C16.4257 17.42 15.7457 17.688 14.8737 17.688C14.2817 17.688 13.7377 17.56 13.2417 17.304C12.7537 17.04 12.3657 16.672 12.0777 16.2C11.7897 15.728 11.6457 15.184 11.6457 14.568C11.6457 13.952 11.7897 13.408 12.0777 12.936C12.3657 12.464 12.7537 12.1 13.2417 11.844C13.7377 11.58 14.2817 11.448 14.8737 11.448C15.8097 11.448 16.5217 11.756 17.0097 12.372V11.544H18.7857ZM15.2457 16.152C15.7417 16.152 16.1457 16.008 16.4577 15.72C16.7777 15.424 16.9377 15.04 16.9377 14.568C16.9377 14.096 16.7777 13.716 16.4577 13.428C16.1457 13.132 15.7417 12.984 15.2457 12.984C14.7497 12.984 14.3417 13.132 14.0217 13.428C13.7017 13.716 13.5417 14.096 13.5417 14.568C13.5417 15.04 13.7017 15.424 14.0217 15.72C14.3417 16.008 14.7497 16.152 15.2457 16.152ZM24.4521 11.448C25.2521 11.448 25.8961 11.688 26.3841 12.168C26.8801 12.648 27.1281 13.36 27.1281 14.304V18H25.2561V14.592C25.2561 14.08 25.1441 13.7 24.9201 13.452C24.6961 13.196 24.3721 13.068 23.9481 13.068C23.4761 13.068 23.1001 13.216 22.8201 13.512C22.5401 13.8 22.4001 14.232 22.4001 14.808V18H20.5281V11.544H22.3161V12.3C22.5641 12.028 22.8721 11.82 23.2401 11.676C23.6081 11.524 24.0121 11.448 24.4521 11.448ZM31.4289 11.448C32.4289 11.448 33.1969 11.688 33.7329 12.168C34.2689 12.64 34.5369 13.356 34.5369 14.316V18H32.7849V17.196C32.4329 17.796 31.7769 18.096 30.8169 18.096C30.3209 18.096 29.8889 18.012 29.5209 17.844C29.1609 17.676 28.8849 17.444 28.6929 17.148C28.5009 16.852 28.4049 16.516 28.4049 16.14C28.4049 15.54 28.6289 15.068 29.0769 14.724C29.5329 14.38 30.2329 14.208 31.1769 14.208H32.6649C32.6649 13.8 32.5409 13.488 32.2929 13.272C32.0449 13.048 31.6729 12.936 31.1769 12.936C30.8329 12.936 30.4929 12.992 30.1569 13.104C29.8289 13.208 29.5489 13.352 29.3169 13.536L28.6449 12.228C28.9969 11.98 29.4169 11.788 29.9049 11.652C30.4009 11.516 30.9089 11.448 31.4289 11.448ZM31.2849 16.836C31.6049 16.836 31.8889 16.764 32.1369 16.62C32.3849 16.468 32.5609 16.248 32.6649 15.96V15.3H31.3809C30.6129 15.3 30.2289 15.552 30.2289 16.056C30.2289 16.296 30.3209 16.488 30.5049 16.632C30.6969 16.768 30.9569 16.836 31.2849 16.836ZM38.4032 18.096C37.8672 18.096 37.3432 18.032 36.8312 17.904C36.3192 17.768 35.9112 17.6 35.6072 17.4L36.2312 16.056C36.5192 16.24 36.8672 16.392 37.2752 16.512C37.6832 16.624 38.0832 16.68 38.4752 16.68C39.2672 16.68 39.6632 16.484 39.6632 16.092C39.6632 15.908 39.5552 15.776 39.3392 15.696C39.1232 15.616 38.7912 15.548 38.3432 15.492C37.8152 15.412 37.3792 15.32 37.0352 15.216C36.6912 15.112 36.3912 14.928 36.1352 14.664C35.8872 14.4 35.7632 14.024 35.7632 13.536C35.7632 13.128 35.8792 12.768 36.1112 12.456C36.3512 12.136 36.6952 11.888 37.1432 11.712C37.5992 11.536 38.1352 11.448 38.7512 11.448C39.2072 11.448 39.6592 11.5 40.1072 11.604C40.5632 11.7 40.9392 11.836 41.2352 12.012L40.6112 13.344C40.0432 13.024 39.4232 12.864 38.7512 12.864C38.3512 12.864 38.0512 12.92 37.8512 13.032C37.6512 13.144 37.5512 13.288 37.5512 13.464C37.5512 13.664 37.6592 13.804 37.8752 13.884C38.0912 13.964 38.4352 14.04 38.9072 14.112C39.4352 14.2 39.8672 14.296 40.2032 14.4C40.5392 14.496 40.8312 14.676 41.0792 14.94C41.3272 15.204 41.4512 15.572 41.4512 16.044C41.4512 16.444 41.3312 16.8 41.0912 17.112C40.8512 17.424 40.4992 17.668 40.0352 17.844C39.5792 18.012 39.0352 18.096 38.4032 18.096ZM46.5302 11.448C47.3302 11.448 47.9742 11.688 48.4622 12.168C48.9582 12.648 49.2062 13.36 49.2062 14.304V18H47.3342V14.592C47.3342 14.08 47.2222 13.7 46.9982 13.452C46.7742 13.196 46.4502 13.068 46.0262 13.068C45.5542 13.068 45.1782 13.216 44.8982 13.512C44.6182 13.8 44.4782 14.232 44.4782 14.808V18H42.6062V9.096H44.4782V12.216C44.7262 11.968 45.0262 11.78 45.3782 11.652C45.7302 11.516 46.1142 11.448 46.5302 11.448ZM54.0454 18.096C53.3654 18.096 52.7534 17.956 52.2094 17.676C51.6734 17.388 51.2534 16.992 50.9494 16.488C50.6454 15.984 50.4934 15.412 50.4934 14.772C50.4934 14.132 50.6454 13.56 50.9494 13.056C51.2534 12.552 51.6734 12.16 52.2094 11.88C52.7534 11.592 53.3654 11.448 54.0454 11.448C54.7254 11.448 55.3334 11.592 55.8694 11.88C56.4054 12.16 56.8254 12.552 57.1294 13.056C57.4334 13.56 57.5854 14.132 57.5854 14.772C57.5854 15.412 57.4334 15.984 57.1294 16.488C56.8254 16.992 56.4054 17.388 55.8694 17.676C55.3334 17.956 54.7254 18.096 54.0454 18.096ZM54.0454 16.56C54.5254 16.56 54.9174 16.4 55.2214 16.08C55.5334 15.752 55.6894 15.316 55.6894 14.772C55.6894 14.228 55.5334 13.796 55.2214 13.476C54.9174 13.148 54.5254 12.984 54.0454 12.984C53.5654 12.984 53.1694 13.148 52.8574 13.476C52.5454 13.796 52.3894 14.228 52.3894 14.772C52.3894 15.316 52.5454 15.752 52.8574 16.08C53.1694 16.4 53.5654 16.56 54.0454 16.56ZM62.6527 11.448C63.2527 11.448 63.7967 11.588 64.2847 11.868C64.7807 12.14 65.1687 12.528 65.4487 13.032C65.7287 13.528 65.8687 14.108 65.8687 14.772C65.8687 15.436 65.7287 16.02 65.4487 16.524C65.1687 17.02 64.7807 17.408 64.2847 17.688C63.7967 17.96 63.2527 18.096 62.6527 18.096C61.8287 18.096 61.1807 17.836 60.7087 17.316V20.328H58.8367V11.544H60.6247V12.288C61.0887 11.728 61.7647 11.448 62.6527 11.448ZM62.3287 16.56C62.8087 16.56 63.2007 16.4 63.5047 16.08C63.8167 15.752 63.9727 15.316 63.9727 14.772C63.9727 14.228 63.8167 13.796 63.5047 13.476C63.2007 13.148 62.8087 12.984 62.3287 12.984C61.8487 12.984 61.4527 13.148 61.1407 13.476C60.8367 13.796 60.6847 14.228 60.6847 14.772C60.6847 15.316 60.8367 15.752 61.1407 16.08C61.4527 16.4 61.8487 16.56 62.3287 16.56ZM73.7558 11.688C74.3398 11.688 74.8678 11.824 75.3398 12.096C75.8118 12.368 76.1798 12.744 76.4438 13.224C76.7158 13.704 76.8518 14.252 76.8518 14.868C76.8518 15.484 76.7158 16.036 76.4438 16.524C76.1798 17.004 75.8118 17.38 75.3398 17.652C74.8678 17.916 74.3398 18.048 73.7558 18.048C73.2038 18.048 72.7038 17.92 72.2558 17.664C71.8078 17.4 71.4598 17.036 71.2118 16.572V20.328H70.6118V11.736H71.1878V13.212C71.4358 12.732 71.7838 12.36 72.2318 12.096C72.6878 11.824 73.1958 11.688 73.7558 11.688ZM73.7198 17.508C74.1998 17.508 74.6318 17.396 75.0158 17.172C75.3998 16.948 75.6998 16.636 75.9158 16.236C76.1398 15.836 76.2518 15.38 76.2518 14.868C76.2518 14.356 76.1398 13.9 75.9158 13.5C75.6998 13.1 75.3998 12.788 75.0158 12.564C74.6318 12.34 74.1998 12.228 73.7198 12.228C73.2398 12.228 72.8078 12.34 72.4238 12.564C72.0478 12.788 71.7478 13.1 71.5238 13.5C71.3078 13.9 71.1998 14.356 71.1998 14.868C71.1998 15.38 71.3078 15.836 71.5238 16.236C71.7478 16.636 72.0478 16.948 72.4238 17.172C72.8078 17.396 73.2398 17.508 73.7198 17.508ZM81.1575 18.048C80.5655 18.048 80.0295 17.912 79.5495 17.64C79.0775 17.368 78.7055 16.992 78.4335 16.512C78.1615 16.024 78.0255 15.476 78.0255 14.868C78.0255 14.26 78.1615 13.716 78.4335 13.236C78.7055 12.748 79.0775 12.368 79.5495 12.096C80.0295 11.824 80.5655 11.688 81.1575 11.688C81.7495 11.688 82.2815 11.824 82.7535 12.096C83.2335 12.368 83.6095 12.748 83.8815 13.236C84.1535 13.716 84.2895 14.26 84.2895 14.868C84.2895 15.476 84.1535 16.024 83.8815 16.512C83.6095 16.992 83.2335 17.368 82.7535 17.64C82.2815 17.912 81.7495 18.048 81.1575 18.048ZM81.1575 17.508C81.6375 17.508 82.0655 17.396 82.4415 17.172C82.8255 16.948 83.1255 16.636 83.3415 16.236C83.5655 15.836 83.6775 15.38 83.6775 14.868C83.6775 14.356 83.5655 13.9 83.3415 13.5C83.1255 13.1 82.8255 12.788 82.4415 12.564C82.0655 12.34 81.6375 12.228 81.1575 12.228C80.6775 12.228 80.2455 12.34 79.8615 12.564C79.4855 12.788 79.1855 13.1 78.9615 13.5C78.7455 13.9 78.6375 14.356 78.6375 14.868C78.6375 15.38 78.7455 15.836 78.9615 16.236C79.1855 16.636 79.4855 16.948 79.8615 17.172C80.2455 17.396 80.6775 17.508 81.1575 17.508ZM94.9271 11.736L92.5511 18H91.9871L89.8751 12.564L87.7511 18H87.1991L84.8231 11.736H85.3991L87.4871 17.328L89.6231 11.736H90.1391L92.2631 17.316L94.3751 11.736H94.9271ZM101.439 15.012H96.051C96.067 15.5 96.191 15.936 96.423 16.32C96.655 16.696 96.967 16.988 97.359 17.196C97.759 17.404 98.207 17.508 98.703 17.508C99.111 17.508 99.487 17.436 99.831 17.292C100.183 17.14 100.475 16.92 100.707 16.632L101.055 17.028C100.783 17.356 100.439 17.608 100.023 17.784C99.615 17.96 99.171 18.048 98.691 18.048C98.067 18.048 97.511 17.912 97.023 17.64C96.535 17.368 96.151 16.992 95.871 16.512C95.599 16.032 95.463 15.484 95.463 14.868C95.463 14.26 95.591 13.716 95.847 13.236C96.111 12.748 96.471 12.368 96.927 12.096C97.383 11.824 97.895 11.688 98.463 11.688C99.031 11.688 99.539 11.824 99.987 12.096C100.443 12.36 100.799 12.732 101.055 13.212C101.319 13.692 101.451 14.236 101.451 14.844L101.439 15.012ZM98.463 12.216C98.023 12.216 97.627 12.316 97.275 12.516C96.923 12.708 96.639 12.984 96.423 13.344C96.215 13.696 96.095 14.096 96.063 14.544H100.863C100.839 14.096 100.719 13.696 100.503 13.344C100.287 12.992 100.003 12.716 99.651 12.516C99.299 12.316 98.903 12.216 98.463 12.216ZM103.883 13.104C104.075 12.648 104.375 12.3 104.783 12.06C105.191 11.812 105.687 11.688 106.271 11.688V12.276L106.127 12.264C105.431 12.264 104.887 12.484 104.495 12.924C104.103 13.356 103.907 13.96 103.907 14.736V18H103.307V11.736H103.883V13.104ZM113.158 15.012H107.77C107.786 15.5 107.91 15.936 108.142 16.32C108.374 16.696 108.686 16.988 109.078 17.196C109.478 17.404 109.926 17.508 110.422 17.508C110.83 17.508 111.206 17.436 111.55 17.292C111.902 17.14 112.194 16.92 112.426 16.632L112.774 17.028C112.502 17.356 112.158 17.608 111.742 17.784C111.334 17.96 110.89 18.048 110.41 18.048C109.786 18.048 109.23 17.912 108.742 17.64C108.254 17.368 107.87 16.992 107.59 16.512C107.318 16.032 107.182 15.484 107.182 14.868C107.182 14.26 107.31 13.716 107.566 13.236C107.83 12.748 108.19 12.368 108.646 12.096C109.102 11.824 109.614 11.688 110.182 11.688C110.75 11.688 111.258 11.824 111.706 12.096C112.162 12.36 112.518 12.732 112.774 13.212C113.038 13.692 113.17 14.236 113.17 14.844L113.158 15.012ZM110.182 12.216C109.742 12.216 109.346 12.316 108.994 12.516C108.642 12.708 108.358 12.984 108.142 13.344C107.934 13.696 107.814 14.096 107.782 14.544H112.582C112.558 14.096 112.438 13.696 112.222 13.344C112.006 12.992 111.722 12.716 111.37 12.516C111.018 12.316 110.622 12.216 110.182 12.216ZM120.594 9.096V18H120.006V16.524C119.758 17.012 119.41 17.388 118.962 17.652C118.514 17.916 118.006 18.048 117.438 18.048C116.854 18.048 116.326 17.912 115.854 17.64C115.382 17.368 115.01 16.992 114.738 16.512C114.474 16.032 114.342 15.484 114.342 14.868C114.342 14.252 114.474 13.704 114.738 13.224C115.01 12.736 115.382 12.36 115.854 12.096C116.326 11.824 116.854 11.688 117.438 11.688C117.998 11.688 118.498 11.82 118.938 12.084C119.386 12.348 119.738 12.716 119.994 13.188V9.096H120.594ZM117.474 17.508C117.954 17.508 118.382 17.396 118.758 17.172C119.142 16.948 119.442 16.636 119.658 16.236C119.882 15.836 119.994 15.38 119.994 14.868C119.994 14.356 119.882 13.9 119.658 13.5C119.442 13.1 119.142 12.788 118.758 12.564C118.382 12.34 117.954 12.228 117.474 12.228C116.994 12.228 116.562 12.34 116.178 12.564C115.802 12.788 115.502 13.1 115.278 13.5C115.062 13.9 114.954 14.356 114.954 14.868C114.954 15.38 115.062 15.836 115.278 16.236C115.502 16.636 115.802 16.948 116.178 17.172C116.562 17.396 116.994 17.508 117.474 17.508ZM129.35 11.688C129.934 11.688 130.462 11.824 130.934 12.096C131.406 12.36 131.774 12.736 132.038 13.224C132.31 13.704 132.446 14.252 132.446 14.868C132.446 15.484 132.31 16.032 132.038 16.512C131.774 16.992 131.406 17.368 130.934 17.64C130.462 17.912 129.934 18.048 129.35 18.048C128.79 18.048 128.282 17.916 127.826 17.652C127.378 17.38 127.03 17.004 126.782 16.524V18H126.206V9.096H126.806V13.164C127.054 12.7 127.402 12.34 127.85 12.084C128.298 11.82 128.798 11.688 129.35 11.688ZM129.314 17.508C129.794 17.508 130.226 17.396 130.61 17.172C130.994 16.948 131.294 16.636 131.51 16.236C131.734 15.836 131.846 15.38 131.846 14.868C131.846 14.356 131.734 13.9 131.51 13.5C131.294 13.1 130.994 12.788 130.61 12.564C130.226 12.34 129.794 12.228 129.314 12.228C128.834 12.228 128.402 12.34 128.018 12.564C127.642 12.788 127.342 13.1 127.118 13.5C126.902 13.9 126.794 14.356 126.794 14.868C126.794 15.38 126.902 15.836 127.118 16.236C127.342 16.636 127.642 16.948 128.018 17.172C128.402 17.396 128.834 17.508 129.314 17.508ZM139.155 11.736L135.939 18.852C135.699 19.404 135.419 19.796 135.099 20.028C134.787 20.26 134.415 20.376 133.983 20.376C133.695 20.376 133.423 20.328 133.167 20.232C132.919 20.136 132.707 19.996 132.531 19.812L132.831 19.356C133.151 19.684 133.539 19.848 133.995 19.848C134.299 19.848 134.559 19.764 134.775 19.596C134.991 19.428 135.191 19.14 135.375 18.732L135.711 17.976L132.891 11.736H133.527L136.035 17.34L138.543 11.736H139.155Z" fill="#172034"/>
<g clip-path="url(#clip0_104_102)">
<path d="M170.183 2.51885V17.7679L154.979 1.47115C154.806 1.28626 154.641 1.09462 154.478 0.901378C154.372 0.775981 154.254 0.661212 154.126 0.558639L154.11 0.541144L154.107 0.543928C153.737 0.251101 153.294 0.0686667 152.828 0.0169669C152.362 -0.0347328 151.891 0.0463345 151.467 0.251129C151.044 0.455924 150.685 0.776396 150.43 1.17681C150.175 1.57722 150.034 2.04184 150.024 2.51885H150.021V24.4505L155.152 25.1877V9.27899L170.952 26.1773C171.256 26.4986 171.636 26.7344 172.055 26.8617C172.474 26.989 172.919 27.0036 173.346 26.904C173.772 26.8043 174.166 26.5939 174.489 26.2932C174.812 25.9925 175.053 25.6117 175.188 25.1881H175.193L175.314 2.51885H170.183Z" fill="#151F34"/>
<path d="M175.343 2.36815C175.235 1.09978 174.21 0.0842874 172.96 0.00516327C172.611 -0.0175443 172.262 0.0330806 171.933 0.153885C171.604 0.274689 171.303 0.463085 171.049 0.70734L171.038 0.696207L162.667 9.70641L166.198 13.4837L174.33 4.70847C174.393 4.64048 174.461 4.57726 174.529 4.51404C174.818 4.24411 175.041 3.9101 175.182 3.53794C175.324 3.16578 175.379 2.76549 175.343 2.36815V2.36815Z" fill="#DA2E64"/>
<path d="M154.344 26.2262L162.667 17.3357L159.176 13.5883L150.674 22.6072L150.703 22.639C150.253 23.1165 150 23.752 149.997 24.4139C149.995 25.0757 150.242 25.7133 150.689 26.1945C151.135 26.6757 151.747 26.9637 152.396 26.9989C153.046 27.034 153.684 26.8136 154.178 26.3833L154.187 26.3936L154.322 26.2497C154.33 26.2421 154.337 26.2338 154.344 26.2262Z" fill="#069EDB"/>
<path d="M192.458 8.41815V18.4379H190.588L185.679 12.3545V18.4379H183.429V8.41815H185.314L190.208 14.5016V8.41815H192.458Z" fill="#151F34"/>
<path d="M202.007 15.2165H196.283C196.494 16.1755 197.296 16.762 198.449 16.762C199.251 16.762 199.827 16.5186 200.348 16.0176L201.515 17.3059C200.812 18.1218 199.757 18.5512 198.393 18.5512C195.777 18.5512 194.076 16.8765 194.076 14.5867C194.076 12.2825 195.805 10.6221 198.112 10.6221C200.334 10.6221 202.049 12.1394 202.049 14.6153C202.049 14.787 202.021 15.0296 202.007 15.2165ZM196.255 13.9139H199.982C199.826 12.9406 199.11 12.3107 198.126 12.3107C197.127 12.3107 196.41 12.9262 196.255 13.9139Z" fill="#151F34"/>
<path d="M208.111 18.4367L206.451 16.0753L204.737 18.4367H202.346L205.257 14.558L202.444 10.7366H204.905L206.507 12.9835L208.153 10.7354H210.488L207.675 14.4996L210.6 18.4359L208.111 18.4367Z" fill="#151F34"/>
<path d="M218.222 14.0427V18.4367H216.169V17.4777C215.761 18.179 214.974 18.5512 213.864 18.5512C212.092 18.5512 211.037 17.5492 211.037 16.218C211.037 14.8586 211.979 13.9139 214.286 13.9139H216.028C216.028 12.9549 215.465 12.397 214.284 12.397C213.483 12.397 212.653 12.6686 212.104 13.1127L211.317 11.5529C212.146 10.9517 213.37 10.6225 214.579 10.6225C216.888 10.6221 218.222 11.71 218.222 14.0427ZM216.028 16.0033V15.2165H214.523C213.497 15.2165 213.173 15.6029 213.173 16.1178C213.173 16.6745 213.637 17.0482 214.411 17.0482C215.142 17.0482 215.775 16.7047 216.028 16.0033Z" fill="#151F34"/>
<path d="M226.899 14.0427V18.4367H224.846V17.4777C224.438 18.179 223.651 18.5512 222.541 18.5512C220.769 18.5512 219.714 17.5492 219.714 16.218C219.714 14.8586 220.656 13.9139 222.963 13.9139H224.707C224.707 12.9549 224.144 12.397 222.963 12.397C222.161 12.397 221.331 12.6686 220.783 13.1127L219.996 11.5529C220.825 10.9517 222.049 10.6225 223.258 10.6225C225.563 10.6221 226.899 11.71 226.899 14.0427ZM224.705 16.0033V15.2165H223.201C222.174 15.2165 221.851 15.6029 221.851 16.1178C221.851 16.6745 222.315 17.0482 223.088 17.0482C223.82 17.0482 224.452 16.7047 224.705 16.0033Z" fill="#151F34"/>
<path d="M228.151 17.721L228.882 16.1178C229.557 16.5616 230.584 16.8622 231.512 16.8622C232.525 16.8622 232.904 16.5902 232.904 16.1608C232.904 14.9016 228.333 16.1898 228.333 13.1123C228.333 11.6527 229.627 10.6221 231.835 10.6221C232.876 10.6221 234.029 10.8654 234.746 11.2949L234.015 12.8853C233.35 12.5025 232.598 12.3049 231.835 12.3123C230.851 12.3123 230.428 12.6276 230.428 13.028C230.428 14.3449 235 13.071 235 16.1051C235 17.5365 233.692 18.5528 231.427 18.5528C230.148 18.5512 228.854 18.1934 228.151 17.721Z" fill="#151F34"/>
</g>
<defs>
<clipPath id="clip0_104_102">
<rect width="85" height="27" fill="white" transform="translate(150)"/>
</clipPath>
</defs>
</svg>
