<?xml version="1.0" encoding="utf-8"?>
<!-- Generator: Adobe Illustrator 25.4.1, SVG Export Plug-In . SVG Version: 6.00 Build 0)  -->
<svg version="1.1"
	 id="svg2" xmlns:cc="http://creativecommons.org/ns#" xmlns:dc="http://purl.org/dc/elements/1.1/" xmlns:inkscape="http://www.inkscape.org/namespaces/inkscape" xmlns:rdf="http://www.w3.org/1999/02/22-rdf-syntax-ns#" xmlns:sodipodi="http://sodipodi.sourceforge.net/DTD/sodipodi-0.dtd" xmlns:svg="http://www.w3.org/2000/svg"
	 xmlns="http://www.w3.org/2000/svg" xmlns:xlink="http://www.w3.org/1999/xlink" x="0px" y="0px" width="55px" height="38px"
	 viewBox="0 0 55 38" style="enable-background:new 0 0 55 38;" xml:space="preserve">
<style type="text/css">
	.st0{fill:#CE1C30;}
</style>
<sodipodi:namedview  bordercolor="#666666" borderopacity="1" gridtolerance="10" guidetolerance="10" id="namedview18" inkscape:current-layer="svg2" inkscape:cx="620.28518" inkscape:cy="-151.54" inkscape:pageopacity="0" inkscape:pageshadow="2" inkscape:window-height="838" inkscape:window-maximized="1" inkscape:window-width="1600" inkscape:window-x="-8" inkscape:window-y="-8" inkscape:zoom="0.29732601" objecttolerance="10" pagecolor="#ffffff" showgrid="false">
	</sodipodi:namedview>
<g id="g10" transform="matrix(0.62237038,0,0,-0.62237038,51.866228,611.97552)">
	<g id="g12" transform="scale(0.1)">
		<path id="path14" inkscape:connector-curvature="0" class="st0" d="M-526.9,9250.3c-1.5-0.4-8.1-1.1-11.3-1.1
			c-12.2,0-18.8,3.6-18.8,12.2c0,8.6,6.6,12,18.8,12c4.1,0,8.8-0.4,11.3-0.6V9250.3z M-543,9329.8c-10.5,0.2-19.7-1.1-28.7-3.2
			c-1.7-6-1.5-14.8,0-21c11.1,2.6,17.3,2.8,24.4,2.8c13.7,0,20.3-5.6,20.3-16.9v-1.1c-4.1,0.4-9,0.9-12.4,0.9
			c-22.7,0-42.1-8.1-42.1-29.9c0-24.6,17.5-32.9,43-32.9c12,0,25,2.1,37,5.8v55.4C-501.5,9316.1-515.8,9329.2-543,9329.8"/>
		<path id="path16" inkscape:connector-curvature="0" class="st0" d="M-591.9,9328.5c-12.6,0-19.9-4.9-26.7-13.7
			c-0.6,4.5-1.5,8.1-3,12.6c-2.6,0.9-7.1,1.1-10.9,1.1c-3.6,0-8.3-0.4-10.7-1.1v-96.9c3.2-0.9,8.6-1.1,13.3-1.1
			c4.5,0,10.5,0.4,13.3,1.1v47.3c0,18.8,9.8,28.9,23.1,28.9c2.4,0,6.4,0,8.8-0.4c1.5,6.2,1.7,15.2,0.4,21.4
			C-586,9328.1-589.8,9328.5-591.9,9328.5"/>
		<path id="path18" inkscape:connector-curvature="0" class="st0" d="M-712.6,9250c-2.8,0-7.1,0-10.1,1.1v53.3c3.6,1.9,8.8,3,15.4,3
			c13.3,0,20.3-9.2,20.3-26.5C-686.9,9262.7-695.2,9250-712.6,9250z M-702.7,9329.4c-7.7,0-15.2-1.7-19.9-4.1v47.5
			c-7.5-2.8-15.4-6.6-22-12c-3.4-2.8-4.5-5.6-4.5-9.6V9234c7.1-3,21.4-5.6,35.1-5.6c34.6,0,54.5,21.2,54.5,51.8
			C-659.5,9310.6-673.6,9329.4-702.7,9329.4"/>
		<path id="path20" inkscape:connector-curvature="0" class="st0" d="M-424.3,9251.5c-4.5-1.3-7.7-1.5-11.3-1.5
			c-17.5,0-24.4,11.5-24.4,28.2c0,18.6,6.8,29.9,24.2,29.9c5.1,0,8.3-0.6,11.5-1.5V9251.5z M-424.3,9351.2v-23.3
			c-4.7,1.3-9.6,1.5-13.9,1.5c-29.3,0-49.2-19.7-49.2-51.1c0-32.1,19.5-49.8,49.8-49.8c13.9,0,27.6,1.9,39.8,6v138.4
			c-7.5-2.8-15.4-6.6-22-12C-423.2,9358-424.3,9355.3-424.3,9351.2"/>
		<path id="path22" inkscape:connector-curvature="0" class="st0" d="M-234.6,9288.1l-10.7,4.5c-6.2,2.6-9.8,4.7-9.8,8.8
			c0,6.2,5.6,7.5,12.8,7.5c7.3,0,14.8-0.9,25-4.1c1.3,7.1,1.3,13.7,0,19.9c-6.4,3.4-18.4,5.1-28.9,5.1c-20.5,0-36.1-11.1-36.1-27.8
			c0-15,6.4-22.5,24.4-29.7l8.3-3.4c7.9-3.2,10.3-5.1,10.3-10.3c0-7.7-7.7-9-14.1-9c-10.7,0-18.8,2.1-29.1,5.8
			c-1.7-6.2-1.7-14.3,0-20.7c8.8-4.7,20.7-6.2,33.4-6.2c20.3,0,36.6,10.7,36.6,29.9C-212.6,9274.2-219.4,9281.7-234.6,9288.1"/>
		<path id="path24" inkscape:connector-curvature="0" class="st0" d="M-152,9250.3c-13.3,0-22,10.5-22,28.9
			c0,17.5,7.1,28.9,22.2,28.9c6.4,0,10.9-1.1,16.9-3.4c1.7,6,4.9,12.8,9.4,18.6c-8.3,4.3-16.5,6.6-29.7,6.6
			c-29.3,0-46.2-20.7-46.2-50.7c0-31,17.3-50.7,47.3-50.7c10.9,0,21,1.9,29.1,6.4c-3.6,4.7-7.7,11.1-10.1,18.6
			C-142.6,9250.5-145.8,9250.3-152,9250.3"/>
		<path id="path26" inkscape:connector-curvature="0" class="st0" d="M-77.8,9249.8c-14.8,0-19.2,12-19.2,29.1
			c0,16.7,4.5,29.5,19.2,29.5c15.2,0,19.5-12.4,19.5-29.5C-58.4,9260.9-63.3,9249.8-77.8,9249.8z M-77.8,9329.8
			c-29.7,0-46.4-20.3-46.4-50.9c0-31,17.5-50.5,46.4-50.5c29.9,0,46.6,19.9,46.6,50.5C-31.2,9309.7-47.9,9329.8-77.8,9329.8"/>
		<path id="path28" inkscape:connector-curvature="0" class="st0" d="M-356.7,9290.7c1.9,11.8,9,18.8,19.7,18.8
			c12,0,16.7-8.1,17.1-18.8H-356.7z M-336.6,9329.8c-28.7,0-46.2-19.2-46.2-51.3c0-32.1,18.6-50,50.5-50c10.9,0,22.7,1.9,30.2,5.6
			c1.5,6.2,1.5,14.3,0,20.5c-9.8-2.8-18.2-4.5-27.4-4.5c-14.8,0-25,5.6-27.2,21.2h60.3c0.9,2.4,1.1,10.3,1.1,13.5
			C-295.3,9313.6-311.6,9329.8-336.6,9329.8"/>
		<path id="path30" inkscape:connector-curvature="0" class="st0" d="M-401.4,9742.5c-24.1,0-50.5-2.2-76.5-6.6
			c26.4,33.8,68.1,55.7,114.8,55.7c34.4,0,68.8-13,91.9-32.3c4.2-3.5,7.4-3.8,10.6-0.6c3.2,3.2,2.9,6.3-0.6,10.4
			c-30.2,35.1-74.6,58.8-127,57.9c-68.5-1.3-126.6-44.6-148.8-104.7c-20.2-6.3-38.9-13.9-55.3-23.1c-4.5-2.5-6.1-5.7-4.5-9.5
			c1.6-3.5,4.8-4.7,9.3-3.5c14.1,4.1,28.6,7.6,43.7,10.8c-1.6-7.9-2.6-16.1-2.6-24.7c-1.3-55.3,28.3-107.8,73.9-136.6
			c4.5-2.8,8.4-2.8,10.9,0.6c2.6,3.5,2.2,6.6-1.6,10.1c-28.9,25.9-45,64.5-45,102.8c0,19.3,3.9,38,11.2,54.7
			c15.1,1.3,31.5,2.2,49.5,2.2c117,0,215.7-38.6,215.7-89.2c0-25.6-32.5-51.2-71-68.3c-9.3-4.1-10.3-7-9-11.1
			c1.3-3.8,5.5-5.1,10.3-3.5c67.5,22.1,118.6,58.5,118.6,102.5C-182.9,9696.3-279.3,9742.5-401.4,9742.5"/>
		<path id="path32" inkscape:connector-curvature="0" class="st0" d="M-345.6,9438.5v128.1c0,4.9-4.7,6.7-8.6,4.5l-32.6-18.7v-120
			l35,0C-348.4,9432.2-345.6,9435-345.6,9438.5"/>
		<path id="path34" inkscape:connector-curvature="0" class="st0" d="M-426.4,9524.8v-88.6c0-2.2,1.8-4,4-4h24.6v113.7l-24.6-14.2
			C-424.9,9530.4-426.4,9528.1-426.4,9524.8"/>
	</g>
</g>
</svg>
