<?xml version="1.0" encoding="utf-8"?>
<!-- Generator: Adobe Illustrator 25.4.1, SVG Export Plug-In . SVG Version: 6.00 Build 0)  -->
<svg version="1.1" id="Camada_1" xmlns="http://www.w3.org/2000/svg" xmlns:xlink="http://www.w3.org/1999/xlink" x="0px" y="0px"
	 width="55px" height="38px" viewBox="0 0 55 38" style="enable-background:new 0 0 55 38;" xml:space="preserve">
<style type="text/css">
	.st0{fill:#2E7D32;}
	.st1{fill:url(#SVGID_1_);}
	.st2{fill:#FFFFFF;}
	.st3{opacity:0.5;fill:#2E7D32;enable-background:new    ;}
	.st4{fill:#FFECB3;}
	.st5{opacity:0.5;fill:#FFB74D;enable-background:new    ;}
	.st6{opacity:0.2;}
	.st7{fill:#424242;}
	.st8{fill:#444444;}
</style>
<g>
	<path class="st0" d="M51.9,37.1H3.4c-1,0-1.9-0.7-1.9-1.5V11.9c0-0.8,0.8-1.5,1.9-1.5h48.5c1,0,1.9,0.7,1.9,1.5v23.7
		C53.8,36.5,53,37.1,51.9,37.1z"/>
	
		<linearGradient id="SVGID_1_" gradientUnits="userSpaceOnUse" x1="27.672" y1="7.1276" x2="27.672" y2="29.4918" gradientTransform="matrix(1 0 0 -1 0 40)">
		<stop  offset="0" style="stop-color:#43A047"/>
		<stop  offset="0.9992" style="stop-color:#66BB6A"/>
	</linearGradient>
	<path class="st1" d="M52,32.9H3.4c-1,0-1.8-0.7-1.8-1.5V11.9c0-0.8,0.8-1.5,1.9-1.5h48.5c1,0,1.9,0.7,1.9,1.5v19.5
		C53.8,32.2,53,32.9,52,32.9z"/>
	<g>
		<path class="st2" d="M17.1,24.3c0-0.4-0.2-0.8-0.6-1.1c-0.4-0.3-1-0.6-1.9-0.8c-1.2-0.3-2.1-0.7-2.7-1.2C11.3,20.7,11,20,11,19.3
			c0-0.8,0.3-1.4,0.8-1.9c0.6-0.5,1.3-0.8,2.3-0.9v-1.2c0-0.2,0.2-0.3,0.4-0.3h0.5c0.2,0,0.4,0.1,0.4,0.3v1.2c1,0.1,1.7,0.4,2.3,1
			c0.5,0.5,0.8,1.2,0.8,2c0,0.2-0.2,0.3-0.4,0.3h-0.9c-0.2,0-0.3-0.1-0.4-0.3c0-0.5-0.2-1-0.6-1.3c-0.4-0.4-0.9-0.6-1.6-0.6
			c-0.7,0-1.2,0.1-1.6,0.4c-0.4,0.3-0.6,0.7-0.6,1.2c0,0.5,0.2,0.9,0.6,1.1c0.4,0.3,1,0.5,1.9,0.8s1.6,0.5,2.1,0.8
			c0.5,0.3,0.9,0.6,1.1,1c0.2,0.4,0.4,0.8,0.4,1.3c0,0.8-0.3,1.4-0.9,1.9c-0.6,0.5-1.4,0.8-2.5,0.9v1c0,0.2-0.2,0.3-0.4,0.3h-0.5
			c-0.2,0-0.4-0.1-0.4-0.3v-1c-1.1-0.1-1.9-0.4-2.5-0.9c-0.5-0.5-0.9-1.1-0.9-1.9c0-0.2,0.2-0.3,0.4-0.3h0.9c0.2,0,0.3,0.1,0.4,0.3
			c0,0.5,0.3,0.9,0.6,1.3c0.4,0.4,1,0.5,1.8,0.5c0.8,0,1.4-0.1,1.8-0.4C16.9,25.2,17.1,24.8,17.1,24.3z"/>
		<polygon class="st2" points="15.3,27.3 14,27 14.2,16.5 14.2,16.2 15.5,16.5 15.3,27 		"/>
	</g>
	<ellipse class="st3" cx="36.7" cy="21.6" rx="8.1" ry="6.5"/>
	<path class="st0" d="M46.2,12.9c0.4,1.9,2.2,3.4,4.6,3.7v10c-2.4,0.3-4.2,1.8-4.6,3.7h-37c-0.5-1.8-2.3-3.2-4.5-3.5v-10
		C7,16.5,9,14.9,9.2,12.9L46.2,12.9 M47,12.2H8.4c0,0.1,0,0.2,0,0.2c0,2.1-2.1,3.8-4.7,3.8v11.3c2.5,0,4.5,1.6,4.7,3.5H47
		c0-2.1,2.1-3.8,4.7-3.8V16C49,16,47,14.3,47,12.2z"/>
	<rect x="22.9" y="10.4" class="st4" width="9.6" height="26.7"/>
	<rect x="22.9" y="32.9" class="st5" width="9.6" height="4.3"/>
	<g class="st6">
		<path class="st7" d="M51.9,10.8c0.8,0,1.5,0.5,1.5,1.2v23.7c0,0.6-0.7,1.2-1.5,1.2H3.4c-0.8,0-1.5-0.5-1.5-1.2V11.9
			c0-0.7,0.7-1.2,1.5-1.2L51.9,10.8 M51.9,10.4H3.4c-1,0-1.9,0.7-1.9,1.5v23.7c0,0.8,0.8,1.5,1.9,1.5h48.5c1,0,1.9-0.7,1.9-1.5V11.9
			C53.8,11.1,53,10.4,51.9,10.4z"/>
	</g>
</g>
<g>
	<path class="st8" d="M13.7,7.2V7.1c-0.1,0.2-0.3,0.3-0.4,0.4c-0.1,0.1-0.3,0.2-0.5,0.2c-0.2,0.1-0.4,0.1-0.6,0.1
		c-0.3,0-0.5-0.1-0.7-0.2c-0.2-0.1-0.4-0.3-0.6-0.5c-0.2-0.2-0.3-0.5-0.4-0.7s-0.1-0.6-0.1-0.9c0-0.7,0.2-1.2,0.5-1.6
		c0.3-0.4,0.8-0.6,1.3-0.6c0.3,0,0.6,0.1,0.8,0.2c0.2,0.1,0.4,0.3,0.6,0.5V2.3c0-0.2,0-0.4,0.1-0.5s0.2-0.2,0.4-0.2
		c0.2,0,0.3,0.1,0.4,0.2c0.1,0.1,0.1,0.3,0.1,0.5v4.9c0,0.2,0,0.4-0.1,0.5c-0.1,0.1-0.2,0.2-0.4,0.2c-0.2,0-0.3-0.1-0.4-0.2
		S13.7,7.4,13.7,7.2z M11.5,5.6c0,0.3,0,0.6,0.1,0.8c0.1,0.2,0.2,0.4,0.4,0.5C12.2,6.9,12.4,7,12.6,7c0.2,0,0.4-0.1,0.5-0.2
		c0.2-0.1,0.3-0.3,0.4-0.5c0.1-0.2,0.1-0.5,0.1-0.8c0-0.3,0-0.6-0.1-0.8c-0.1-0.2-0.2-0.4-0.4-0.5c-0.2-0.1-0.3-0.2-0.5-0.2
		c-0.2,0-0.4,0.1-0.5,0.2c-0.2,0.1-0.3,0.3-0.4,0.5C11.5,5,11.5,5.3,11.5,5.6z"/>
	<path class="st8" d="M19,5.9h-2.2c0,0.3,0.1,0.5,0.2,0.7c0.1,0.2,0.2,0.3,0.4,0.4s0.3,0.1,0.5,0.1c0.1,0,0.3,0,0.4,0
		c0.1,0,0.2-0.1,0.3-0.1s0.2-0.1,0.3-0.2c0.1-0.1,0.2-0.2,0.3-0.3c0.1,0,0.1-0.1,0.2-0.1c0.1,0,0.2,0,0.3,0.1
		c0.1,0.1,0.1,0.2,0.1,0.3c0,0.1,0,0.2-0.1,0.4c-0.1,0.1-0.2,0.3-0.4,0.4c-0.2,0.1-0.4,0.2-0.6,0.3c-0.2,0.1-0.5,0.1-0.8,0.1
		c-0.7,0-1.3-0.2-1.7-0.6c-0.4-0.4-0.6-1-0.6-1.7c0-0.3,0-0.6,0.1-0.9s0.2-0.5,0.4-0.7c0.2-0.2,0.4-0.4,0.7-0.5
		c0.3-0.1,0.6-0.2,0.9-0.2c0.4,0,0.8,0.1,1.1,0.3s0.5,0.4,0.7,0.7c0.2,0.3,0.2,0.6,0.2,0.9c0,0.3-0.1,0.5-0.2,0.5
		C19.5,5.8,19.3,5.9,19,5.9z M16.8,5.2h2c0-0.4-0.1-0.7-0.3-0.9c-0.2-0.2-0.4-0.3-0.7-0.3c-0.3,0-0.5,0.1-0.7,0.3
		C16.9,4.6,16.8,4.8,16.8,5.2z"/>
	<path class="st8" d="M21.8,3.9v0.1c0.2-0.3,0.4-0.4,0.7-0.6c0.2-0.1,0.5-0.2,0.8-0.2c0.3,0,0.7,0.1,0.9,0.3
		c0.3,0.2,0.5,0.4,0.7,0.8c0.2,0.3,0.3,0.7,0.3,1.2c0,0.3,0,0.7-0.1,0.9S24.7,7,24.5,7.2c-0.2,0.2-0.4,0.3-0.6,0.4s-0.5,0.2-0.7,0.2
		c-0.3,0-0.6-0.1-0.8-0.2c-0.2-0.1-0.4-0.3-0.6-0.6v1.7c0,0.5-0.2,0.7-0.5,0.7c-0.2,0-0.3-0.1-0.4-0.2c-0.1-0.1-0.1-0.3-0.1-0.6V3.9
		c0-0.2,0-0.4,0.1-0.5s0.2-0.2,0.4-0.2c0.2,0,0.3,0.1,0.4,0.2C21.7,3.6,21.8,3.7,21.8,3.9z M24,5.6c0-0.3,0-0.5-0.1-0.8
		c-0.1-0.2-0.2-0.4-0.4-0.5c-0.2-0.1-0.3-0.2-0.5-0.2c-0.3,0-0.6,0.1-0.8,0.4c-0.2,0.2-0.3,0.6-0.3,1.1c0,0.4,0.1,0.8,0.3,1
		C22.3,6.9,22.6,7,22.9,7c0.2,0,0.4-0.1,0.5-0.2c0.2-0.1,0.3-0.3,0.4-0.5C23.9,6.1,24,5.9,24,5.6z"/>
	<path class="st8" d="M30.1,5.6c0,0.3-0.1,0.6-0.2,0.9S29.7,7,29.5,7.2s-0.4,0.4-0.7,0.5c-0.3,0.1-0.6,0.2-0.9,0.2
		c-0.3,0-0.6-0.1-0.9-0.2c-0.3-0.1-0.5-0.3-0.7-0.5C26.1,7,26,6.8,25.9,6.5c-0.1-0.3-0.2-0.6-0.2-0.9c0-0.3,0.1-0.6,0.2-0.9
		c0.1-0.3,0.3-0.5,0.4-0.7c0.2-0.2,0.4-0.4,0.7-0.5c0.3-0.1,0.6-0.2,0.9-0.2c0.3,0,0.6,0.1,0.9,0.2c0.3,0.1,0.5,0.3,0.7,0.5
		s0.3,0.4,0.4,0.7C30.1,4.9,30.1,5.2,30.1,5.6z M29,5.6c0-0.5-0.1-0.8-0.3-1.1c-0.2-0.3-0.5-0.4-0.8-0.4c-0.2,0-0.4,0.1-0.6,0.2
		C27.2,4.4,27,4.6,27,4.8s-0.1,0.5-0.1,0.8c0,0.3,0,0.5,0.1,0.8c0.1,0.2,0.2,0.4,0.4,0.5C27.5,7,27.7,7,27.9,7
		c0.3,0,0.6-0.1,0.8-0.4C28.9,6.4,29,6,29,5.6z M28,1.7h0.6c0.1,0,0.2,0,0.2,0.1c0,0-0.1,0.1-0.2,0.3c-0.2,0.2-0.3,0.3-0.5,0.4
		c-0.2,0.1-0.3,0.2-0.3,0.3c-0.2,0.1-0.3,0.1-0.5,0.1c-0.1,0-0.2,0-0.2-0.1c0,0,0-0.1,0.1-0.2l0.2-0.3c0.1-0.2,0.2-0.3,0.3-0.4
		C27.8,1.7,27.9,1.7,28,1.7z"/>
	<path class="st8" d="M34.6,6.4c0,0.3-0.1,0.6-0.2,0.8c-0.1,0.2-0.4,0.4-0.7,0.5c-0.3,0.1-0.6,0.2-1.1,0.2c-0.4,0-0.7-0.1-1-0.2
		c-0.3-0.1-0.5-0.3-0.6-0.5c-0.1-0.2-0.2-0.4-0.2-0.6c0-0.1,0-0.2,0.1-0.3c0.1-0.1,0.2-0.1,0.3-0.1c0.1,0,0.2,0,0.3,0.1
		s0.1,0.1,0.2,0.2C31.8,6.7,32,6.9,32.1,7s0.4,0.1,0.7,0.1c0.2,0,0.4,0,0.5-0.1c0.1-0.1,0.2-0.2,0.2-0.3c0-0.2-0.1-0.3-0.2-0.4
		S32.9,6,32.6,5.9c-0.4-0.1-0.7-0.2-0.9-0.3s-0.4-0.2-0.6-0.4s-0.2-0.4-0.2-0.6c0-0.2,0.1-0.4,0.2-0.6c0.1-0.2,0.3-0.4,0.6-0.5
		c0.3-0.1,0.6-0.2,0.9-0.2c0.3,0,0.5,0,0.8,0.1c0.2,0.1,0.4,0.1,0.6,0.2c0.2,0.1,0.3,0.2,0.4,0.3c0.1,0.1,0.1,0.2,0.1,0.4
		c0,0.1,0,0.2-0.1,0.3c-0.1,0.1-0.2,0.1-0.4,0.1c-0.1,0-0.2,0-0.3-0.1c-0.1-0.1-0.2-0.2-0.3-0.3c-0.1-0.1-0.2-0.2-0.3-0.3
		C32.9,4.1,32.8,4,32.6,4c-0.2,0-0.4,0-0.5,0.1s-0.2,0.2-0.2,0.3c0,0.1,0,0.2,0.1,0.3c0.1,0.1,0.2,0.1,0.4,0.2
		c0.2,0,0.4,0.1,0.7,0.2c0.3,0.1,0.6,0.2,0.8,0.3s0.4,0.3,0.5,0.4S34.6,6.2,34.6,6.4z"/>
	<path class="st8" d="M36.1,2.8c-0.2,0-0.3,0-0.4-0.1c-0.1-0.1-0.2-0.2-0.2-0.4c0-0.2,0.1-0.3,0.2-0.4s0.2-0.2,0.4-0.2
		c0.1,0,0.3,0,0.4,0.1c0.1,0.1,0.2,0.2,0.2,0.4c0,0.2-0.1,0.3-0.2,0.4C36.4,2.7,36.3,2.8,36.1,2.8z M36.7,3.9v3.2
		c0,0.2-0.1,0.4-0.2,0.5c-0.1,0.1-0.2,0.2-0.4,0.2c-0.2,0-0.3-0.1-0.4-0.2c-0.1-0.1-0.2-0.3-0.2-0.5V4c0-0.2,0.1-0.4,0.2-0.5
		c0.1-0.1,0.2-0.2,0.4-0.2c0.2,0,0.3,0.1,0.4,0.2S36.7,3.7,36.7,3.9z"/>
	<path class="st8" d="M37.9,3.4H38V2.7c0-0.2,0-0.3,0-0.4c0-0.1,0-0.2,0.1-0.3c0-0.1,0.1-0.1,0.2-0.2c0.1,0,0.2-0.1,0.3-0.1
		c0.1,0,0.3,0.1,0.4,0.2C39,2,39.1,2.1,39.1,2.2s0,0.2,0,0.4v0.8h0.4c0.2,0,0.3,0,0.4,0.1C40,3.6,40,3.7,40,3.8
		C40,4,40,4.1,39.9,4.1c-0.1,0.1-0.3,0.1-0.5,0.1h-0.2v2.1c0,0.2,0,0.3,0,0.4c0,0.1,0,0.2,0.1,0.2C39.3,7,39.4,7,39.5,7
		c0.1,0,0.2,0,0.3,0c0.1,0,0.2,0,0.3,0c0.1,0,0.2,0,0.2,0.1s0.1,0.2,0.1,0.3c0,0.2-0.1,0.3-0.3,0.4c-0.2,0.1-0.5,0.1-0.8,0.1
		c-0.3,0-0.6-0.1-0.8-0.2s-0.3-0.3-0.4-0.5C38,7,38,6.7,38,6.4V4.2h-0.1c-0.2,0-0.3,0-0.4-0.1c-0.1-0.1-0.1-0.2-0.1-0.3
		s0-0.2,0.1-0.3C37.6,3.4,37.7,3.4,37.9,3.4z"/>
	<path class="st8" d="M45,5.6c0,0.3-0.1,0.6-0.2,0.9S44.6,7,44.4,7.2s-0.4,0.4-0.7,0.5c-0.3,0.1-0.6,0.2-0.9,0.2
		c-0.3,0-0.6-0.1-0.9-0.2c-0.3-0.1-0.5-0.3-0.7-0.5c-0.2-0.2-0.3-0.4-0.5-0.7c-0.1-0.3-0.2-0.6-0.2-0.9c0-0.3,0.1-0.6,0.2-0.9
		s0.3-0.5,0.4-0.7c0.2-0.2,0.4-0.4,0.7-0.5c0.3-0.1,0.6-0.2,0.9-0.2c0.3,0,0.6,0.1,0.9,0.2c0.3,0.1,0.5,0.3,0.7,0.5s0.3,0.4,0.4,0.7
		C44.9,4.9,45,5.2,45,5.6z M43.9,5.6c0-0.5-0.1-0.8-0.3-1.1c-0.2-0.3-0.5-0.4-0.8-0.4c-0.2,0-0.4,0.1-0.6,0.2
		c-0.2,0.1-0.3,0.3-0.4,0.5c-0.1,0.2-0.1,0.5-0.1,0.8c0,0.3,0,0.5,0.1,0.8c0.1,0.2,0.2,0.4,0.4,0.5C42.3,7,42.5,7,42.8,7
		c0.3,0,0.6-0.1,0.8-0.4C43.8,6.4,43.9,6,43.9,5.6z"/>
</g>
</svg>
