<?xml version="1.0" encoding="utf-8"?>
<!-- Generator: Adobe Illustrator 25.4.1, SVG Export Plug-In . SVG Version: 6.00 Build 0)  -->
<svg version="1.1" id="ab8971c7-e940-47ec-82bf-55986b1d109e"
	 xmlns="http://www.w3.org/2000/svg" xmlns:xlink="http://www.w3.org/1999/xlink" x="0px" y="0px" width="55px" height="38px"
	 viewBox="0 0 55 38" style="enable-background:new 0 0 55 38;" xml:space="preserve">
<style type="text/css">
	.st0{fill:#2656A0;}
	.st1{fill:#FFFFFF;}
</style>
<path d="M9.5,23.1H6.8v0.2c0.5,0,0.8,0.1,0.8,0.4c0,0.2-0.1,0.5-0.1,0.6l-1.2,4.3c-0.2,0.6-0.3,0.7-0.8,0.8v0.2H8
	c3,0,4.4-1.7,4.4-3.8C12.5,24.7,11.8,23.1,9.5,23.1z M8,29.2c-0.5,0-0.7-0.1-0.7-0.4c0-0.2,0.1-0.6,0.2-1l1.2-4.2
	c0-0.1,0.1-0.3,0.7-0.3c1.8,0,2,1.3,2,2.3C11.3,26.3,11.2,29.2,8,29.2z"/>
<path d="M14.7,28.5c-0.4,0.6-0.9,1.2-1.4,1.2c-0.5,0-0.5-0.5-0.5-0.6c0-0.5,0.8-3,0.8-3.3c0-0.2-0.1-0.3-0.6-0.3v-0.2
	c0.4,0,1.2-0.2,1.6-0.3l0,0l-0.9,3.3c0,0.1-0.2,0.6-0.2,0.7c0,0.1,0.1,0.2,0.2,0.2c0.1,0,0.4-0.2,0.8-0.8L14.7,28.5z"/>
<path d="M14.5,23.9c-0.3,0-0.5-0.2-0.5-0.5c0-0.4,0.2-0.6,0.5-0.6c0.3,0,0.5,0.3,0.5,0.6C15,23.6,14.8,23.9,14.5,23.9z"/>
<path d="M19.5,28.5c-0.5,0.7-0.9,1.2-1.4,1.2c-0.5,0-0.5-0.3-0.5-0.6c0-0.2,0.8-2.8,0.8-3.2c0-0.2-0.1-0.3-0.3-0.3
	c-0.5,0-1.1,0.9-1.5,1.5c-0.5,0.7-0.6,1.2-1,2.5h-0.8c0.3-1.2,1-3.6,1-3.8c0-0.2-0.1-0.3-0.7-0.3v-0.2c0.6-0.1,1.1-0.2,1.7-0.3l0,0
	l-0.7,2.1l0,0c0.5-0.8,1.4-2.2,2.3-2.2c0.5,0,0.7,0.2,0.7,0.7c0,0.4-0.8,3-0.8,3.3c0,0.2,0.1,0.2,0.2,0.2c0.2,0,0.5-0.3,0.8-0.8
	L19.5,28.5z"/>
<path d="M21,27.6c1.7-0.2,2.6-1.1,2.6-1.9c0-0.5-0.3-0.7-0.8-0.7c-1.4,0-3.1,1.7-3.1,3.2c0,0.6,0.3,1.4,1.4,1.4c1,0,2-0.9,2.1-1.1
	L23,28.4c-0.5,0.4-0.9,0.8-1.5,0.8c-0.4,0-1-0.2-1-0.9c0-0.2,0.1-0.4,0.1-0.6L21,27.6z M20.9,27c0.4-0.9,1.1-1.7,1.6-1.7
	c0.3,0,0.4,0.2,0.4,0.4c0,0.1-0.1,1.3-2.2,1.7L20.9,27z"/>
<path d="M23.5,29.6l0.8-3c0.1-0.4,0.2-0.7,0.2-0.8c0-0.1-0.1-0.3-0.4-0.3c-0.1,0-0.2,0-0.3,0.1v-0.2c0.5-0.1,1.1-0.2,1.6-0.3l0,0
	l-0.5,2l0,0l0.1-0.2c0.3-0.7,1.1-1.9,1.8-1.9c0.2,0,0.5,0.2,0.5,0.5c0,0.5-0.4,0.5-0.5,0.5c-0.4,0-0.3-0.4-0.5-0.4
	c-0.3,0-0.9,1.1-1,1.3c-0.4,0.7-0.5,1.2-1,2.6H23.5z"/>
<path d="M26.8,28.1c0.1,0.5,0.2,1.4,1.1,1.4c0.6,0,0.7-0.5,0.7-0.8c0-0.7-1.2-1.7-1.2-2.5c0-0.3,0.1-1.1,1.2-1.1
	c0.5,0,0.7,0.2,1,0.2c0.2,0,0.2-0.1,0.3-0.2H30l-0.2,1.4h-0.2c-0.1-0.6-0.3-1.2-1-1.2c-0.2,0-0.6,0.1-0.6,0.6c0,0.6,1.3,1.6,1.3,2.4
	c0,1.1-1,1.4-1.5,1.4c-0.3,0-0.7-0.2-1-0.2c-0.1,0-0.2,0.1-0.2,0.2h-0.2l0.2-1.6H26.8z"/>
<path d="M38.1,24.8c0-0.3-0.1-1.7-1.6-1.7c-2.1,0-3.1,2.5-3.1,4c0,1.3,0.6,2.2,1.8,2.2c1.2,0,1.9-0.7,2.4-1.2l0.2,0.1
	c-0.4,0.5-1.3,1.5-2.8,1.5c-1.2,0-2.7-0.7-2.7-2.8c0-2,1.8-4.3,4.2-4.3c0.7,0,1.4,0.2,1.6,0.2c0.3,0,0.4-0.1,0.4-0.2h0.2l-0.4,2
	L38.1,24.8z"/>
<path d="M40.4,28.4c-0.5,0.8-0.9,1.3-1.6,1.3c-0.5,0-0.5-0.3-0.5-0.6c0-0.2,1.5-5.6,1.5-5.8c0-0.3-0.4-0.3-0.7-0.3v-0.2
	c0.5-0.1,1.1-0.2,1.6-0.3l0.1,0.1l-1.6,5.9c0,0.1-0.1,0.4-0.1,0.5c0,0.1,0,0.2,0.2,0.2c0.3,0,0.5-0.3,1-0.9L40.4,28.4z"/>
<path d="M45.1,28.4c-0.6,0.9-0.9,1.2-1.4,1.2c-0.5,0-0.5-0.4-0.5-0.5c0-0.2,0.2-1,0.4-1.9h0c-0.7,1.2-1.5,2.4-2.4,2.4
	c-0.4,0-0.6-0.2-0.6-0.6c0-0.5,0.8-3,0.8-3.3c0-0.3-0.2-0.3-0.6-0.3v-0.1c0.5-0.1,1-0.2,1.5-0.3l0,0l-0.9,3.7c0,0.1,0,0.3,0.2,0.3
	c0.4,0,1.1-1,1.4-1.5c0.5-0.8,0.7-1.4,1.1-2.5H45l-0.8,3.1C44.1,28.4,44,28.8,44,29c0,0.1,0,0.2,0.1,0.2c0.2,0,0.5-0.4,0.8-0.8
	L45.1,28.4z"/>
<path d="M48.6,24.7c-0.9,0-1.5,0.5-1.8,1l0,0c0.3-1.2,0.7-2.3,0.9-3.2l-0.1-0.1c-0.5,0.1-1.1,0.2-1.6,0.2V23c0.6,0,0.7,0.1,0.7,0.3
	c0,0.1-0.1,0.4-0.2,0.7l-1.4,5.1v0c0,0.2,0.8,0.5,1.3,0.5c1.6,0,3.3-1.8,3.3-3.4C49.7,25.5,49.3,24.7,48.6,24.7z M46.5,29.4
	c-0.5,0-0.5-0.3-0.5-0.3c0.1-1.8,1-3.8,2.2-3.8c0.6,0,0.7,0.8,0.7,1.2C48.9,27.3,47.9,29.4,46.5,29.4z"/>
<path d="M3.3,37.3c0.5-0.1,0.7-0.1,0.8-0.8l1.2-4.3c0.1-0.2,0.1-0.5,0.1-0.6c0-0.4-0.3-0.4-0.7-0.4V31h2.5v0.2
	c-0.5,0.1-0.7,0.1-0.8,0.8l-1.2,4.3c-0.1,0.2-0.1,0.4-0.1,0.7c0,0.3,0.3,0.4,0.7,0.4v0.2H3.3V37.3z"/>
<path d="M11.2,36.4c-0.5,0.7-0.9,1.2-1.4,1.2c-0.5,0-0.5-0.3-0.5-0.6c0-0.2,0.8-2.8,0.8-3.2c0-0.2-0.1-0.3-0.3-0.3
	c-0.5,0-1.1,0.9-1.5,1.5c-0.5,0.7-0.6,1.2-1,2.5H6.5c0.3-1.2,1-3.6,1-3.8c0-0.2-0.1-0.3-0.7-0.3v-0.2C7.4,33.1,8,33,8.5,32.9l0,0
	l-0.7,2.1l0,0c0.5-0.8,1.4-2.2,2.3-2.2c0.5,0,0.7,0.2,0.7,0.7c0,0.4-0.8,3-0.8,3.3c0,0.2,0.1,0.2,0.2,0.2c0.2,0,0.5-0.3,0.8-0.8
	L11.2,36.4z"/>
<path d="M14,33.4h-0.9l-0.9,3.4c0,0,0,0.1,0,0.1c0,0.1,0.1,0.2,0.2,0.2c0.2,0,0.6-0.5,0.8-0.8l0.1,0.1c-0.5,0.8-0.9,1.2-1.5,1.2
	c-0.2,0-0.5-0.1-0.5-0.4c0-0.2,0.2-0.8,0.2-0.9l0.7-2.8h-0.8c0-0.1,0-0.1,0-0.2c0.1-0.1,0.3-0.2,0.5-0.3c0.3-0.2,0.8-0.6,1.1-1
	c0-0.1,0.1-0.1,0.2-0.1c0.1,0,0.1,0.1,0.1,0.2l-0.3,1.1H14L14,33.4z"/>
<path d="M15,35.5c1.7-0.2,2.6-1.1,2.6-1.9c0-0.5-0.3-0.7-0.8-0.7c-1.4,0-3.1,1.7-3.1,3.2c0,0.6,0.3,1.4,1.4,1.4c1,0,2-0.9,2.1-1.1
	L17,36.3c-0.5,0.4-0.9,0.8-1.5,0.8c-0.4,0-1-0.2-1-0.9c0-0.2,0.1-0.4,0.1-0.6L15,35.5z M14.9,34.9c0.4-0.9,1.1-1.7,1.6-1.7
	c0.3,0,0.4,0.2,0.4,0.4c0,0.1-0.1,1.3-2.2,1.7L14.9,34.9z"/>
<path d="M17.5,37.5l0.8-3c0.1-0.4,0.2-0.7,0.2-0.8c0-0.1-0.1-0.3-0.4-0.3c-0.1,0-0.2,0-0.3,0.1v-0.2c0.5-0.1,1.1-0.2,1.6-0.3l0,0
	l-0.5,2l0,0l0.1-0.2c0.3-0.7,1.1-1.9,1.8-1.9c0.2,0,0.5,0.2,0.5,0.5c0,0.5-0.4,0.5-0.5,0.5c-0.4,0-0.3-0.4-0.5-0.4
	c-0.3,0-0.9,1.1-1,1.3c-0.4,0.7-0.5,1.2-1,2.6H17.5z"/>
<path d="M25.8,36.4c-0.5,0.7-0.9,1.2-1.4,1.2c-0.5,0-0.5-0.3-0.5-0.6c0-0.2,0.8-2.8,0.8-3.2c0-0.2-0.1-0.3-0.3-0.3
	c-0.5,0-1.1,0.9-1.5,1.5c-0.5,0.7-0.6,1.2-1,2.5H21c0.3-1.2,1-3.6,1-3.8c0-0.2-0.1-0.3-0.7-0.3v-0.2c0.6-0.1,1.1-0.2,1.7-0.3l0,0
	l-0.7,2.1l0,0c0.5-0.8,1.4-2.2,2.3-2.2c0.5,0,0.7,0.2,0.7,0.7c0,0.4-0.8,3-0.8,3.3c0,0.2,0.1,0.2,0.2,0.2c0.2,0,0.5-0.3,0.8-0.8
	L25.8,36.4z"/>
<path d="M30.4,36.3c-0.5,0.5-0.7,0.7-0.8,0.7c-0.1,0-0.1-0.1-0.1-0.1c0-0.3,0.9-3.8,1-3.9l-0.1,0L29.7,33l0,0l-0.1,0.5h0
	c0-0.3-0.4-0.6-0.8-0.6c-1.4,0-2.9,1.9-2.9,3.4c0,0.3,0,1.2,1.1,1.2c0.6,0,1.2-0.3,2-1.6l0,0c-0.2,0.6-0.2,0.9-0.2,1.1
	c0,0.2,0,0.4,0.4,0.4c0.4,0,0.8-0.4,1.4-1.1L30.4,36.3z M27.2,37.1c-0.3,0-0.6-0.2-0.6-0.7c0-0.9,0.9-3.2,2.1-3.2
	c0.3,0,0.6,0.2,0.6,0.7C29.3,34.9,28.3,37.1,27.2,37.1z"/>
<path d="M33.1,33.4h-0.9l-0.9,3.4c0,0,0,0.1,0,0.1c0,0.1,0.1,0.2,0.2,0.2c0.2,0,0.6-0.5,0.8-0.8l0.1,0.1c-0.5,0.8-0.9,1.2-1.5,1.2
	c-0.2,0-0.5-0.1-0.5-0.4c0-0.2,0.2-0.8,0.2-0.9l0.7-2.8h-0.8c0-0.1,0-0.1,0-0.2c0.1-0.1,0.3-0.2,0.5-0.3c0.3-0.2,0.8-0.6,1.1-1
	c0-0.1,0.1-0.1,0.2-0.1c0.1,0,0.1,0.1,0.1,0.2l-0.3,1.1h0.8L33.1,33.4z"/>
<path d="M35.2,36.4c-0.4,0.6-0.9,1.2-1.4,1.2c-0.5,0-0.5-0.5-0.5-0.6c0-0.5,0.8-3,0.8-3.3c0-0.2-0.1-0.3-0.6-0.3v-0.2
	c0.4,0,1.2-0.2,1.6-0.3l0,0l-0.9,3.3c0,0.1-0.2,0.6-0.2,0.7c0,0.1,0.1,0.2,0.2,0.2c0.1,0,0.4-0.2,0.8-0.8L35.2,36.4z"/>
<path d="M35,31.8c-0.3,0-0.5-0.2-0.5-0.5c0-0.4,0.2-0.6,0.5-0.6c0.3,0,0.5,0.3,0.5,0.6C35.5,31.5,35.4,31.8,35,31.8z"/>
<path d="M38.4,32.9c-1.5,0-3,1.7-3,3.2c0,0.9,0.5,1.5,1.6,1.5c1.6,0,3-1.9,3-3.1C39.9,33.8,39.6,32.9,38.4,32.9z M37.1,37.4
	c-0.5,0-0.8-0.4-0.8-1c0-1.2,0.9-3.3,2.1-3.3c0.5,0,0.7,0.5,0.7,1C39.1,35.2,38.2,37.4,37.1,37.4z"/>
<path d="M44.4,36.4c-0.5,0.7-0.9,1.2-1.4,1.2c-0.5,0-0.5-0.3-0.5-0.6c0-0.2,0.8-2.8,0.8-3.2c0-0.2-0.1-0.3-0.3-0.3
	c-0.5,0-1.1,0.9-1.5,1.5c-0.5,0.7-0.6,1.2-1,2.5h-0.8c0.3-1.2,1-3.6,1-3.8c0-0.2-0.1-0.3-0.7-0.3v-0.2c0.6-0.1,1.1-0.2,1.7-0.3l0,0
	L41,35.1l0,0c0.5-0.8,1.4-2.2,2.3-2.2c0.5,0,0.7,0.2,0.7,0.7c0,0.4-0.8,3-0.8,3.3c0,0.2,0.1,0.2,0.2,0.2c0.2,0,0.5-0.3,0.8-0.8
	L44.4,36.4z"/>
<path d="M49,36.3c-0.5,0.5-0.7,0.7-0.8,0.7C48.1,37,48,37,48,36.9c0-0.3,0.9-3.8,1-3.9l-0.1,0L48.3,33l0,0l-0.1,0.5h0
	c0-0.3-0.4-0.6-0.8-0.6c-1.4,0-2.9,1.9-2.9,3.4c0,0.3,0,1.2,1.1,1.2c0.6,0,1.2-0.3,2-1.6l0,0c-0.2,0.6-0.2,0.9-0.2,1.1
	c0,0.2,0,0.4,0.4,0.4c0.4,0,0.8-0.4,1.4-1.1L49,36.3z M45.9,37.1c-0.3,0-0.6-0.2-0.6-0.7c0-0.9,0.9-3.2,2.1-3.2
	c0.3,0,0.6,0.2,0.6,0.7C48,34.9,47,37.1,45.9,37.1z"/>
<path d="M51.1,36.6c-0.5,0.8-0.7,1-1.4,1c-0.5,0-0.5-0.3-0.5-0.6c0-0.2,1.5-5.6,1.5-5.8c0-0.3-0.4-0.3-0.7-0.3v-0.2
	c0.5-0.1,1.1-0.2,1.6-0.3l0.1,0.1l-1.6,5.9c0,0.1-0.1,0.4-0.1,0.5c0,0.1,0,0.2,0.2,0.2c0.3,0,0.3,0,0.8-0.7L51.1,36.6z"/>
<path class="st0" d="M33.5,20.7c5.6,0,10.2-4.5,10.2-10.2c0-5.6-4.5-10.2-10.2-10.2H20.6C15,0.4,10.5,5,10.5,10.6
	c0,5.6,4.5,10.2,10.2,10.2H33.5z"/>
<g>
	<ellipse transform="matrix(0.9929 -0.1193 0.1193 0.9929 -1.1154 2.5387)" class="st1" cx="20.6" cy="10.6" rx="9.9" ry="9.9"/>
</g>
<path class="st0" d="M18.6,4.9c-2.4,0.8-4.1,3.1-4.1,5.7c0,2.7,1.7,4.9,4.1,5.7L18.6,4.9z"/>
<path class="st0" d="M26.7,10.6c0,2.7-1.7,4.9-4.1,5.7l0-11.5C25,5.7,26.7,7.9,26.7,10.6"/>
</svg>
