<?xml version="1.0" encoding="utf-8"?>
<!-- Generator: Adobe Illustrator 25.4.1, SVG Export Plug-In . SVG Version: 6.00 Build 0)  -->
<svg version="1.1"
	 id="svg2985" xmlns:cc="http://creativecommons.org/ns#" xmlns:dc="http://purl.org/dc/elements/1.1/" xmlns:inkscape="http://www.inkscape.org/namespaces/inkscape" xmlns:rdf="http://www.w3.org/1999/02/22-rdf-syntax-ns#" xmlns:sodipodi="http://sodipodi.sourceforge.net/DTD/sodipodi-0.dtd" xmlns:svg="http://www.w3.org/2000/svg"
	 xmlns="http://www.w3.org/2000/svg" xmlns:xlink="http://www.w3.org/1999/xlink" x="0px" y="0px" width="55px" height="38px"
	 viewBox="0 0 55 38" style="enable-background:new 0 0 55 38;" xml:space="preserve">
<style type="text/css">
	.st0{fill:#B3131B;}
</style>
<sodipodi:namedview  bordercolor="#666666" borderopacity="1" gridtolerance="10" guidetolerance="10" id="namedview2987" inkscape:current-layer="svg2985" inkscape:cx="1000" inkscape:cy="444.5" inkscape:pageopacity="0" inkscape:pageshadow="2" inkscape:window-height="706" inkscape:window-maximized="1" inkscape:window-width="1360" inkscape:window-x="-8" inkscape:window-y="-8" inkscape:zoom="0.24" objecttolerance="10" pagecolor="#ffffff" showgrid="false">
	</sodipodi:namedview>
<path id="path2997" inkscape:connector-curvature="0" class="st0" d="M23,31L0,31v-0.1c0,0,0-0.2,0.1-0.4c0-0.2,0.1-0.5,0.2-0.7
	c0-0.2,0.1-0.5,0.2-0.8c0-0.2,0.1-0.6,0.2-0.8c0-0.2,0.1-0.6,0.2-0.8c0-0.2,0.1-0.5,0.2-0.8c0-0.2,0.1-0.6,0.2-0.8
	c0-0.2,0.1-0.6,0.2-0.8c0-0.2,0.1-0.5,0.1-0.7c0-0.2,0.1-0.4,0.1-0.5c0-0.1,0.1-0.5,0.2-0.8c0.1-0.3,0.1-0.6,0.2-0.8
	c0-0.1,0.1-0.5,0.2-0.8C2,21.3,2,21,2,20.9c0-0.1,0.1-0.5,0.2-0.8c0.1-0.3,0.1-0.6,0.2-0.7c0-0.1,0.1-0.4,0.1-0.6
	c0-0.2,0.1-0.7,0.2-1c0.1-0.3,0.2-0.8,0.2-1.2c0.1-0.3,0.1-0.7,0.2-0.9c0-0.2,0.1-0.4,0.1-0.6c0-0.2,0.1-0.5,0.2-0.7
	c0-0.2,0.1-0.6,0.2-0.8c0-0.2,0.1-0.6,0.2-0.8c0-0.2,0.1-0.5,0.2-0.7c0-0.2,0.1-0.6,0.2-0.8c0-0.2,0.1-0.6,0.2-0.8
	c0.1-0.2,0.1-0.5,0.2-0.6c0-0.1,0.1-0.3,0.2-0.5l0.2-0.3L4.9,9c0.1-0.1,0.2-0.3,0.3-0.4c0.1-0.1,0.3-0.2,0.4-0.3s0.2-0.2,0.3-0.2
	C5.9,8,6.1,7.9,6.2,7.8s0.3-0.1,0.3-0.2s0.2-0.1,0.3-0.1c0.1,0,0.3-0.1,0.5-0.2c0.2,0,0.4-0.1,0.6-0.2c0.2,0,0.5-0.1,0.7-0.1L9,7
	l23,0l23,0v0.1c0,0,0,0.2-0.1,0.4c0,0.2-0.1,0.6-0.2,0.8c0,0.2-0.1,0.6-0.2,0.7c0,0.2-0.1,0.5-0.2,0.8c0,0.2-0.1,0.6-0.2,0.8
	c0,0.2-0.1,0.5-0.2,0.8c0,0.2-0.1,0.5-0.2,0.8s-0.1,0.5-0.1,0.7c0,0.2-0.1,0.5-0.2,0.8s-0.1,0.6-0.2,0.8c0,0.2-0.1,0.5-0.2,0.7
	s-0.1,0.5-0.2,0.8s-0.1,0.6-0.2,0.8c0,0.2-0.1,0.5-0.1,0.7c0,0.2-0.1,0.5-0.2,0.8s-0.1,0.6-0.2,0.8c0,0.2-0.1,0.5-0.1,0.7
	c0,0.2-0.1,0.6-0.2,0.8c0,0.2-0.1,0.6-0.2,0.8c0,0.2-0.1,0.5-0.2,0.7c0,0.2-0.1,0.6-0.2,0.8c0,0.2-0.1,0.6-0.2,0.8
	c0,0.2-0.1,0.5-0.2,0.8c0,0.2-0.1,0.6-0.2,0.8c0,0.2-0.1,0.6-0.2,0.7c0,0.2-0.1,0.5-0.2,0.8c0,0.2-0.1,0.6-0.2,0.8l-0.1,0.4
	l-0.1,0.3c-0.1,0.1-0.1,0.3-0.2,0.4c0,0.1-0.1,0.3-0.2,0.4c-0.1,0.1-0.2,0.2-0.2,0.3c0,0.1-0.2,0.2-0.3,0.3l-0.2,0.2l-0.2,0.2
	C49.1,30,49,30.1,49,30.1c0,0-0.2,0.1-0.3,0.2c-0.1,0.1-0.3,0.2-0.5,0.2s-0.3,0.1-0.5,0.2c-0.1,0-0.3,0.1-0.4,0.1s-0.2,0-0.4,0.1
	c-0.1,0-0.4,0.1-0.7,0.1l-0.4,0L23,31L23,31z M14.8,25h0.6l0,0c0,0,0-0.1,0-0.1c0,0,0-0.2,0-0.4s0.1-0.5,0.1-0.8
	c0-0.3,0.1-0.7,0.1-0.9c0-0.2,0.1-0.5,0.1-0.7c0-0.1,0-0.2,0-0.2c0,0,0,0.1,0.1,0.1l0.1,0.1l0.2,0.2l0.2,0.2l0.2,0.1l0.2,0.1l0.2,0
	l0.2,0l0.3,0l0.3,0l0.3-0.1l0.3-0.1l0.2-0.1c0.1,0,0.3-0.1,0.4-0.2l0.2-0.1l0.2-0.2c0.1-0.1,0.2-0.3,0.3-0.4
	c0.1-0.1,0.1-0.2,0.1-0.2c0,0,0-0.1,0.1-0.1c0-0.1,0.1-0.2,0.2-0.4c0.1-0.2,0.2-0.4,0.2-0.6l0.1-0.3l0.1-0.3c0-0.2,0.1-0.4,0.1-0.6
	l0-0.3l0-0.3l0-0.3l-0.1-0.3l-0.1-0.3l-0.1-0.2l-0.1-0.2L20,17.1l-0.2-0.2l-0.2-0.1l-0.2-0.1l-0.2-0.1l-0.2-0.1l-0.2,0l-0.2,0
	l-0.3,0l-0.3,0l-0.2,0.1l-0.2,0.1l-0.2,0.1c-0.1,0-0.3,0.1-0.3,0.2c-0.1,0.1-0.2,0.1-0.2,0.1c0,0-0.1,0.1-0.1,0.1l-0.1,0l0.1-0.2
	c0-0.1,0.1-0.3,0.1-0.3l0,0h-0.5h-0.5l-0.1,0.6c0,0.3-0.1,0.8-0.2,1.1s-0.1,0.7-0.2,0.9c0,0.2-0.1,0.6-0.2,0.9
	c0,0.3-0.1,0.7-0.2,0.9s-0.1,0.6-0.2,0.8c0,0.2-0.1,0.6-0.2,0.8c0,0.3-0.1,0.7-0.2,0.9c0,0.2-0.1,0.6-0.2,0.9c0,0.2-0.1,0.4-0.1,0.5
	l0,0.1H14.8L14.8,25z M17.4,21.8l-0.2,0l-0.2,0l-0.2,0l-0.2-0.1l-0.2-0.1l-0.1-0.1l-0.1-0.1l-0.1-0.1c0-0.1-0.1-0.2-0.1-0.3l0-0.1
	l0-0.2l0-0.2l0.1-0.4c0-0.2,0.1-0.6,0.2-0.9c0-0.3,0.1-0.7,0.2-0.9l0.1-0.4l0.2-0.1c0.1-0.1,0.2-0.2,0.3-0.2l0.1-0.1l0.2-0.1
	l0.2-0.1l0.3,0l0.3,0l0.2,0l0.2,0l0.1,0.1l0.1,0.1l0.1,0.1l0.1,0.1l0.1,0.1c0,0.1,0.1,0.2,0.1,0.3l0,0.2l0,0.5l0,0.5l-0.1,0.3
	c0,0.2-0.1,0.4-0.2,0.6l-0.1,0.3l-0.1,0.2c-0.1,0.1-0.2,0.3-0.2,0.4s-0.1,0.2-0.2,0.2s-0.1,0.1-0.2,0.2l-0.1,0.1l-0.2,0.1l-0.2,0.1
	L17.4,21.8L17.4,21.8z M23.1,22.6l0.3,0l0.3,0c0.2,0,0.4,0,0.6-0.1c0.2,0,0.5-0.1,0.6-0.1l0.3-0.1l0-0.1c0-0.1,0-0.3,0.1-0.5
	l0.1-0.3l0,0l0,0l-0.1,0.1c-0.1,0-0.2,0.1-0.4,0.1l-0.3,0.1l-0.3,0.1l-0.3,0.1l-0.5,0l-0.5,0L23,21.7c-0.1,0-0.2-0.1-0.3-0.1
	l-0.1-0.1l-0.1-0.1l-0.1-0.1l-0.1-0.1L22.1,21l-0.1-0.2L22,20.6l0-0.3l0-0.3l0-0.3l0-0.3l0.4,0l0.4,0l1.5,0l1.5,0l0-0.2
	c0-0.1,0.1-0.3,0.1-0.5l0-0.3l0-0.3l0-0.3l0-0.2l0-0.2l-0.1-0.1c0-0.1-0.1-0.2-0.2-0.2c0-0.1-0.1-0.1-0.2-0.2
	c-0.1,0-0.2-0.1-0.2-0.1l-0.1-0.1l-0.2-0.1l-0.2-0.1l-0.3,0l-0.3,0l-0.3,0l-0.3,0l-0.3,0.1L23,16.7l-0.2,0.1c-0.1,0-0.3,0.1-0.4,0.2
	c-0.1,0.1-0.2,0.1-0.3,0.2c-0.1,0.1-0.2,0.2-0.3,0.2c-0.1,0.1-0.2,0.2-0.3,0.3c-0.1,0.1-0.2,0.3-0.2,0.4c-0.1,0.1-0.1,0.3-0.2,0.3
	c0,0.1-0.1,0.2-0.1,0.3S21,19.1,21,19.2c0,0.2-0.1,0.4-0.1,0.6l0,0.3l0,0.4l0,0.4l0,0.2c0,0.1,0.1,0.2,0.1,0.3
	c0,0.1,0.1,0.2,0.1,0.3s0.1,0.2,0.2,0.2c0.1,0.1,0.2,0.2,0.3,0.2c0.1,0.1,0.2,0.1,0.3,0.2l0.2,0.1l0.2,0.1c0.1,0,0.3,0.1,0.4,0.1
	C22.8,22.6,23,22.6,23.1,22.6L23.1,22.6z M23.7,18.7c-0.8,0-1.4,0-1.4,0s0-0.1,0.1-0.2s0.1-0.3,0.2-0.4l0.1-0.2l0.2-0.2l0.2-0.2
	l0.2-0.1c0.1,0,0.2-0.1,0.3-0.1c0.1,0,0.2,0,0.4,0l0.3,0l0.2,0l0.2,0l0.2,0.1l0.2,0.1l0.1,0.1c0,0.1,0.1,0.1,0.1,0.2l0,0.1l0,0.2
	l0,0.2l0,0.3l0,0.3L23.7,18.7L23.7,18.7z M32,22.6l0.3,0l0.3,0c0.2,0,0.4-0.1,0.6-0.1c0.1,0,0.3-0.1,0.4-0.1c0.1,0,0.2-0.1,0.2-0.1
	c0,0,0-0.1,0.1-0.3c0-0.1,0.1-0.3,0.1-0.4c0-0.1,0-0.2,0-0.2c0,0,0,0,0,0c0,0-0.2,0.1-0.3,0.1l-0.3,0.1L33,21.7l-0.4,0.1l-0.3,0
	l-0.3,0l-0.2-0.1l-0.2-0.1l-0.1-0.1l-0.1-0.1l-0.1-0.2L31.2,21l0-0.2l0-0.2l0-0.3l0-0.3l0.1-0.4l0.1-0.4l0.1-0.2
	c0-0.1,0.1-0.2,0.1-0.3c0,0,0.1-0.2,0.1-0.3c0.1-0.1,0.1-0.3,0.2-0.4l0.1-0.2l0.1-0.1l0.1-0.1l0.1-0.1l0.1-0.1l0.2-0.1
	c0.1,0,0.3-0.1,0.4-0.1l0.2,0l0.3,0l0.3,0l0.4,0.1l0.4,0.1l0.1,0.1c0.1,0,0.2,0.1,0.2,0.1s0-0.1,0-0.2c0-0.1,0.1-0.3,0.1-0.5
	c0-0.1,0-0.2,0-0.2c0,0-0.1,0-0.2,0c-0.1,0-0.5,0-0.8-0.1l-0.5,0l-0.4,0l-0.4,0l-0.3,0.1L32,16.7l-0.2,0.1c-0.1,0-0.2,0.1-0.3,0.2
	c-0.1,0-0.2,0.1-0.2,0.1c0,0-0.2,0.1-0.3,0.3l-0.2,0.2l-0.1,0.2c-0.1,0.1-0.2,0.3-0.3,0.4l-0.1,0.3l-0.1,0.3
	c-0.1,0.2-0.1,0.4-0.2,0.6l-0.1,0.3l0,0.3l0,0.3l0,0.3l0,0.3l0,0.2l0,0.2l0.1,0.2l0.1,0.2l0.1,0.2l0.1,0.2l0.2,0.2l0.2,0.2l0.2,0.1
	l0.2,0.1l0.2,0.1c0.1,0,0.3,0.1,0.4,0.1C31.6,22.6,31.8,22.6,32,22.6L32,22.6z M36.6,22.6l0.4,0l0.2-0.1l0.2-0.1l0.2-0.1
	c0.1,0,0.2-0.1,0.3-0.2c0.1-0.1,0.2-0.2,0.3-0.2c0.1-0.1,0.2-0.2,0.2-0.3s0.1-0.1,0.1-0.1c0,0,0,0.1,0,0.3s0,0.4,0,0.5l0,0.2H39h0.5
	l0-0.4l0-0.4l0.1-0.5c0-0.3,0.1-0.7,0.1-0.9c0-0.2,0.1-0.6,0.2-0.9c0-0.2,0.1-0.6,0.2-0.8l0.1-0.4l0-0.3l0-0.3L40,17.2L40,17.1
	L39.8,17l-0.1-0.1l-0.2-0.1l-0.2-0.1l-0.3-0.1l-0.3-0.1l-0.4,0l-0.4,0l-0.5,0c-0.3,0-0.6,0-0.8,0.1l-0.3,0l-0.2,0l-0.2,0l0,0.2
	c0,0.1-0.1,0.3-0.1,0.5c0,0.2-0.1,0.3-0.1,0.3c0,0,0.1,0,0.3-0.1c0.1,0,0.4-0.1,0.7-0.1l0.4-0.1l0.4,0l0.4,0l0.2,0l0.2,0l0.2,0.1
	l0.2,0.1l0.1,0.1l0.1,0.1l0,0.2l0,0.2l0,0.2l0,0.2l-1,0l-1,0l-0.3,0.1c-0.2,0-0.4,0.1-0.4,0.1C36.1,19,36,19,36,19s-0.1,0.1-0.2,0.1
	l-0.2,0.1l-0.2,0.2c-0.1,0.1-0.2,0.2-0.3,0.3C35,19.8,35,20,34.9,20.1l-0.1,0.2l0,0.2l0,0.2V21v0.3l0,0.2l0,0.2l0.1,0.1
	c0,0.1,0.1,0.2,0.2,0.2l0.1,0.1l0.2,0.1l0.2,0.1l0.2,0.1c0.1,0,0.3,0.1,0.4,0.1l0.2,0L36.6,22.6L36.6,22.6z M36.9,21.8l-0.2,0
	l-0.1,0c-0.1,0-0.2-0.1-0.3-0.1l-0.1-0.1l-0.1-0.1c0,0-0.1-0.1-0.1-0.2l-0.1-0.1l0-0.3l0-0.3l0-0.2c0-0.1,0.1-0.2,0.1-0.3l0.1-0.2
	l0.2-0.2l0.2-0.2l0.2-0.1l0.2-0.1l0.2-0.1l0.2-0.1H38h0.7l0,0l0,0l0,0.2c0,0.1-0.1,0.3-0.1,0.5c0,0.1-0.1,0.4-0.2,0.5
	c0,0.1-0.1,0.2-0.1,0.2c0,0,0,0.1-0.1,0.2l-0.1,0.2L38,21.3c-0.1,0.1-0.2,0.2-0.2,0.2s-0.1,0-0.1,0.1l-0.1,0.1l-0.2,0.1l-0.2,0.1
	L36.9,21.8L36.9,21.8z M46,22.6l0.3,0l0.3,0c0.1,0,0.3-0.1,0.4-0.1c0.1,0,0.2-0.1,0.3-0.1l0.2-0.1l0.1-0.1l0.1-0.1l0.2-0.2
	c0.1-0.1,0.2-0.2,0.2-0.2l0,0l0,0.1c0,0.1,0,0.2,0,0.3c0,0.1,0,0.2,0,0.3l0,0.2h0.5h0.5v-0.2v-0.2l0.1-0.7c0-0.4,0.1-0.9,0.2-1.2
	s0.1-0.6,0.1-0.8c0-0.2,0.1-0.5,0.1-0.7s0.1-0.6,0.2-0.9c0-0.3,0.1-0.7,0.2-0.9s0.1-0.6,0.2-0.8c0-0.2,0.1-0.6,0.2-0.8
	c0-0.2,0.1-0.6,0.2-0.8c0-0.2,0.1-0.3,0.1-0.3v0h-0.6h-0.6l0,0.2c0,0.1-0.1,0.4-0.1,0.7c0,0.3-0.1,0.8-0.2,1c0,0.3-0.1,0.5-0.1,0.6
	l0,0.1l0,0c0,0-0.2,0-0.3-0.1l-0.3-0.1l-0.4,0l-0.4,0l-0.3,0l-0.3,0l-0.3,0.1l-0.3,0.1l-0.3,0.1L45.6,17l-0.2,0.1l-0.2,0.1l-0.2,0.2
	c-0.1,0.1-0.2,0.3-0.3,0.4L44.7,18l-0.2,0.3c-0.1,0.2-0.2,0.4-0.2,0.5c0,0.1-0.1,0.3-0.2,0.5L44,19.7l0,0.4l0,0.4l0,0.3l0,0.3l0,0.1
	c0,0.1,0.1,0.2,0.1,0.3l0.1,0.1l0.1,0.1l0.1,0.1l0.1,0.1l0.1,0.1l0.2,0.1c0.1,0,0.2,0.1,0.3,0.1c0.1,0,0.3,0.1,0.3,0.1
	C45.6,22.6,45.8,22.6,46,22.6L46,22.6z M46.4,21.8l-0.2,0l-0.1,0c-0.1,0-0.2-0.1-0.3-0.1l-0.1-0.1l-0.1-0.1l-0.1-0.1l-0.1-0.2
	l-0.1-0.2l0-0.2l0-0.2l0-0.4l0-0.4l0-0.3l0-0.3l0.1-0.2c0-0.1,0.1-0.2,0.1-0.3c0,0,0-0.1,0.1-0.2c0-0.1,0.1-0.3,0.2-0.4
	c0-0.1,0.1-0.2,0.2-0.3c0.1-0.1,0.2-0.2,0.2-0.3s0.2-0.2,0.3-0.2l0.1-0.1l0.2-0.1l0.2-0.1l0.5,0h0.5l0.3,0.1c0.1,0,0.3,0.1,0.3,0.1
	l0.1,0l0,0.1c0,0,0,0.2-0.1,0.4s-0.1,0.5-0.1,0.8c0,0.2-0.1,0.6-0.2,0.8s-0.1,0.5-0.1,0.6c0,0.1-0.1,0.3-0.1,0.4
	c0,0.1-0.1,0.2-0.1,0.3s-0.1,0.2-0.2,0.3c0,0.1-0.1,0.2-0.2,0.2c-0.1,0-0.2,0.1-0.2,0.2l-0.2,0.1l-0.2,0.1l-0.2,0.1L46.4,21.8
	L46.4,21.8z M5.5,22.4h0.7l0-0.3c0-0.2,0.1-0.5,0.1-0.7c0-0.2,0.1-0.6,0.2-0.9c0-0.3,0.1-0.7,0.2-0.9c0-0.2,0.1-0.6,0.1-0.8
	c0-0.2,0.1-0.4,0.1-0.4l0,0h1.8h1.8l0,0l0,0l0,0.2c0,0.1-0.1,0.4-0.1,0.6c0,0.2-0.1,0.7-0.2,0.9s-0.1,0.6-0.2,0.8
	c0,0.2-0.1,0.6-0.2,0.9c-0.1,0.3-0.1,0.6-0.1,0.6l0,0h0.7h0.7l0-0.2c0-0.1,0-0.3,0.1-0.4c0-0.1,0.1-0.4,0.1-0.5
	c0-0.2,0.1-0.5,0.1-0.8s0.1-0.7,0.2-1c0-0.3,0.1-0.7,0.2-0.9c0-0.2,0.1-0.6,0.2-0.8s0.1-0.6,0.2-0.9c0-0.3,0.1-0.6,0.2-0.8
	c0-0.2,0.1-0.6,0.2-0.9c0-0.3,0.1-0.6,0.1-0.7l0-0.2H12h-0.7l0,0.1c0,0.1,0,0.3-0.1,0.5c0,0.2-0.1,0.5-0.1,0.7
	c0,0.2-0.1,0.6-0.2,0.9c0,0.3-0.1,0.6-0.1,0.8l0,0.3l-1,0l-1,0l-0.8,0c-0.5,0-0.8,0-0.9,0c0,0,0-0.1,0-0.2c0-0.1,0.1-0.4,0.1-0.5
	c0-0.1,0.1-0.4,0.1-0.6c0-0.2,0.1-0.5,0.1-0.6s0-0.3,0.1-0.4c0-0.1,0.1-0.3,0.1-0.5c0-0.2,0.1-0.3,0.1-0.4l0,0H6.9H6.3l0,0.2
	c0,0.1-0.1,0.3-0.1,0.4c0,0.1-0.1,0.4-0.1,0.7c0,0.3-0.1,0.7-0.2,1c0,0.2-0.1,0.7-0.2,1c0,0.3-0.1,0.7-0.2,1s-0.1,0.6-0.2,0.8
	c0,0.2-0.1,0.6-0.2,0.8c0,0.3-0.1,0.6-0.2,0.8c0,0.2-0.1,0.4-0.1,0.5c0,0.1-0.1,0.3-0.1,0.5c0,0.2-0.1,0.4-0.1,0.4v0L5.5,22.4
	L5.5,22.4z M13,22.4h0.6l0,0c0,0,0-0.1,0-0.1c0-0.1,0-0.3,0.1-0.6c0-0.3,0.1-0.8,0.2-1c0-0.3,0.1-0.7,0.2-0.9c0-0.2,0.1-0.6,0.1-0.8
	c0-0.2,0.1-0.6,0.2-0.8c0-0.2,0.1-0.6,0.2-0.9s0.1-0.5,0.1-0.5l0,0l-0.6,0l-0.6,0L13.4,17c0,0.2-0.1,0.6-0.1,0.9s-0.1,0.7-0.2,1
	c0,0.2-0.1,0.6-0.2,0.9c0,0.2-0.1,0.6-0.2,0.8c0,0.2-0.1,0.6-0.2,0.8c0,0.2-0.1,0.5-0.1,0.7c0,0.1-0.1,0.3-0.1,0.3l0,0.1H13L13,22.4
	z M27,22.4h0.6l0-0.3c0-0.1,0-0.4,0.1-0.6c0-0.2,0.1-0.6,0.1-0.9c0-0.3,0.1-0.8,0.2-1.1c0.1-0.3,0.1-0.6,0.1-0.7c0-0.1,0-0.1,0-0.2
	c0,0,0-0.1,0.1-0.3c0.1-0.1,0.2-0.3,0.2-0.4l0.1-0.2l0.2-0.2l0.2-0.2l0.2-0.1l0.2-0.1l0.3,0l0.3,0l0.2,0c0.1,0,0.2,0,0.2,0
	c0,0,0,0,0-0.1c0,0,0-0.2,0.1-0.4c0-0.2,0.1-0.3,0.1-0.4c0,0-0.1,0-0.2-0.1c-0.1,0-0.3-0.1-0.3-0.1l-0.1,0l-0.2,0
	c-0.1,0-0.2,0.1-0.3,0.1c-0.1,0-0.2,0.1-0.3,0.2c-0.1,0.1-0.2,0.2-0.3,0.2c-0.1,0.1-0.2,0.2-0.3,0.3c-0.1,0.1-0.2,0.2-0.2,0.3l0,0.1
	l0-0.1c0-0.1,0.1-0.3,0.1-0.4c0-0.2,0.1-0.4,0.1-0.4l0,0h-0.5h-0.5v0.1c0,0,0,0.3-0.1,0.5c0,0.2-0.1,0.6-0.1,0.9
	c0,0.2-0.1,0.7-0.2,0.9c0,0.3-0.1,0.7-0.2,0.9c0,0.2-0.1,0.6-0.2,0.8c0,0.2-0.1,0.6-0.2,0.9s-0.1,0.5-0.1,0.6c0,0.1,0,0.2,0,0.2v0
	L27,22.4L27,22.4z M41.1,22.4h0.6v-0.2v-0.2l0.1-0.5c0-0.3,0.1-0.7,0.1-0.9S42,20.2,42,20s0.1-0.4,0.1-0.6c0-0.2,0.1-0.4,0.1-0.5
	c0-0.1,0-0.1,0-0.2c0,0,0.1-0.1,0.1-0.3l0.1-0.2l0.2-0.2l0.2-0.2l0.2-0.1c0.1-0.1,0.2-0.2,0.3-0.2l0.2-0.1l0.3,0l0.3,0l0.1,0l0.1,0
	l0,0l0,0l0-0.1c0,0,0-0.2,0.1-0.4l0.1-0.3l-0.1,0c0,0-0.1,0-0.2-0.1l-0.1,0l-0.3,0l-0.3,0l-0.2,0.1l-0.2,0.1l-0.2,0.1L43,16.9
	l-0.2,0.2l-0.2,0.2l-0.1,0.2c-0.1,0.1-0.1,0.2-0.1,0.2c0,0,0-0.2,0.1-0.4c0-0.2,0.1-0.4,0.1-0.5l0-0.1H42h-0.5v0c0,0,0,0.2-0.1,0.4
	c0,0.2-0.1,0.6-0.1,0.9c0,0.3-0.1,0.7-0.2,1S41,19.6,41,19.8c0,0.2-0.1,0.6-0.2,0.8c0,0.2-0.1,0.6-0.2,0.8c0,0.2-0.1,0.5-0.1,0.7
	l-0.1,0.3L41.1,22.4L41.1,22.4z M14.2,15.6l0.2,0l0.1,0l0.1,0l0.1-0.1l0.1-0.1l0.1-0.2L15,15l0-0.2l0-0.2l-0.1-0.1l-0.1-0.1
	l-0.1-0.1l-0.1-0.1h-0.2l-0.2,0l-0.1,0.1L14,14.3l-0.1,0.1l-0.1,0.1l-0.1,0.2l-0.1,0.2l0,0.2l0,0.2l0.1,0.1l0.1,0.1l0.1,0.1l0.1,0.1
	L14.2,15.6L14.2,15.6z"/>
</svg>
