<?xml version="1.0" encoding="utf-8"?>
<!-- Generator: Adobe Illustrator 25.4.1, SVG Export Plug-In . SVG Version: 6.00 Build 0)  -->
<svg version="1.1"
	 id="svg2477" xmlns:cc="http://creativecommons.org/ns#" xmlns:dc="http://purl.org/dc/elements/1.1/" xmlns:inkscape="http://www.inkscape.org/namespaces/inkscape" xmlns:rdf="http://www.w3.org/1999/02/22-rdf-syntax-ns#" xmlns:sodipodi="http://sodipodi.sourceforge.net/DTD/sodipodi-0.dtd" xmlns:svg="http://www.w3.org/2000/svg"
	 xmlns="http://www.w3.org/2000/svg" xmlns:xlink="http://www.w3.org/1999/xlink" x="0px" y="0px" width="55px" height="38px"
	 viewBox="0 0 55 38" style="enable-background:new 0 0 55 38;" xml:space="preserve">
<style type="text/css">
	.st0{fill:#28316B;}
	.st1{fill:#50B4E9;}
	.st2{fill:#FFFFFF;}
</style>
<sodipodi:namedview  bordercolor="#666666" borderopacity="1.0" fit-margin-bottom="0" fit-margin-left="0" fit-margin-right="0" fit-margin-top="0" id="base" inkscape:current-layer="layer1" inkscape:cx="-119.01326" inkscape:cy="-341.43092" inkscape:document-units="mm" inkscape:pageopacity="0.0" inkscape:pageshadow="2" inkscape:window-height="837" inkscape:window-maximized="1" inkscape:window-width="1600" inkscape:window-x="-8" inkscape:window-y="-8" inkscape:zoom="0.35" pagecolor="#ffffff" showgrid="false">
	</sodipodi:namedview>
<g>
	
		<g id="g1222" transform="matrix(2.4469912,0,0,-2.4469912,79.17355,33.624475)" inkscape:export-filename="C:\Users\suitedoalex\sites\mercado-pago-logo-7.png" inkscape:export-xdpi="7.1889887" inkscape:export-ydpi="7.1889887">
		<path id="path1224" inkscape:connector-curvature="0" class="st0" d="M-15.4,9.7c0,2.1-2.6,3.7-5.7,3.7s-5.7-1.7-5.7-3.7
			c0-0.1,0-0.2,0-0.2c0-2.2,2.2-3.9,5.7-3.9c3.5,0,5.7,1.8,5.7,3.9V9.7z"/>
	</g>
	
		<g id="g1226" transform="matrix(2.4469912,0,0,-2.4469912,77.9334,33.614937)" inkscape:export-filename="C:\Users\suitedoalex\sites\mercado-pago-logo-7.png" inkscape:export-xdpi="7.1889887" inkscape:export-ydpi="7.1889887">
		<path id="path1228" inkscape:connector-curvature="0" class="st1" d="M-15.1,9.7c0-1.9-2.5-3.5-5.5-3.5c-3,0-5.5,1.6-5.5,3.5
			s2.5,3.5,5.5,3.5C-17.6,13.3-15.1,11.7-15.1,9.7"/>
	</g>
	
		<g id="g1230" transform="matrix(2.4469912,0,0,-2.4469912,36.506585,27.337191)" inkscape:export-filename="C:\Users\suitedoalex\sites\mercado-pago-logo-7.png" inkscape:export-xdpi="7.1889887" inkscape:export-ydpi="7.1889887">
		<path id="path1232" inkscape:connector-curvature="0" class="st2" d="M-5.5,8.3c0,0-0.1-0.1,0-0.1C-5.4,8.1-5.2,8-4.9,8.1
			c0.2,0,0.4,0.2,0.6,0.4c0.2,0.2,0.4,0.3,0.6,0.4c0.2,0.1,0.4,0,0.5,0c0.1,0,0.2-0.1,0.4-0.3C-2.4,8.3-0.9,7-0.6,6.8
			c0.2,0.1,1.1,0.5,2.4,0.8C1.7,8.2,1.2,8.8,0.6,9.3c-0.9-0.4-1.9-0.6-3,0c0,0-0.6,0.3-1.1,0.3c-0.8,0-1.2-0.4-1.6-0.8L-5.5,8.3z"/>
	</g>
	
		<g id="g1234" transform="matrix(2.4469912,0,0,-2.4469912,63.741344,36.740486)" inkscape:export-filename="C:\Users\suitedoalex\sites\mercado-pago-logo-7.png" inkscape:export-xdpi="7.1889887" inkscape:export-ydpi="7.1889887">
		<path id="path1236" inkscape:connector-curvature="0" class="st2" d="M-11.8,10.5c0,0-1.8,1.5-2.2,1.9c-0.2,0.2-0.4,0.2-0.5,0.2
			c-0.1,0-0.2,0-0.2,0c-0.2-0.1-0.4-0.2-0.6-0.4c-0.2-0.2-0.4-0.3-0.6-0.4c-0.3-0.1-0.5,0-0.7,0.1c-0.1,0-0.1,0.1-0.1,0.1
			c-0.1,0.1,0,0.2,0.1,0.2l0.5,0.5c0.1,0.1,0.1,0.1,0.2,0.2c-0.2,0-0.3-0.1-0.4-0.1c-0.2-0.1-0.3-0.1-0.5-0.1
			c-0.1,0-0.4,0.1-0.5,0.1c-0.4,0.1-0.8,0.2-1.4,0.5c-0.7-0.5-1.2-1.2-1.3-1.9c0.1,0,0.3-0.1,0.3-0.1c1.6-0.4,2-0.7,2.1-0.8
			c0.1,0.1,0.2,0.2,0.4,0.2c0.2,0,0.3-0.1,0.4-0.2c0.1,0.1,0.2,0.1,0.4,0.1c0.1,0,0.1,0,0.2,0c0.2-0.1,0.3-0.2,0.3-0.3
			c0.1,0,0.1,0,0.2,0c0.1,0,0.2,0,0.3-0.1c0.3-0.1,0.3-0.4,0.3-0.6c0,0,0,0,0.1,0c0.3,0,0.6-0.3,0.6-0.6c0-0.1,0-0.2-0.1-0.3
			c0.1-0.1,0.3-0.2,0.5-0.1c0.2,0,0.2,0.1,0.3,0.1c0,0,0,0,0,0.1l-0.4,0.5c0,0-0.1,0.1,0,0.1c0,0,0.1,0,0.1,0
			c0.2-0.2,0.5-0.5,0.5-0.5c0,0,0,0,0.1-0.1c0.1,0,0.2,0,0.4,0.1c0,0,0.1,0.1,0.1,0.1c0,0,0,0,0,0c0.1,0.1,0,0.3,0,0.3l-0.5,0.6
			c0,0-0.1,0.1,0,0.1c0,0,0.1,0,0.1,0c0.2-0.1,0.4-0.4,0.6-0.6c0,0,0.2-0.2,0.5,0c0.2,0.1,0.2,0.2,0.2,0.3c0,0.1-0.1,0.2-0.1,0.2
			l-0.7,0.7c0,0-0.1,0.1,0,0.1c0,0,0.1,0,0.1,0c0.2-0.2,0.8-0.7,0.8-0.7c0,0,0.2-0.2,0.5,0c0.1,0.1,0.2,0.1,0.2,0.3
			C-11.7,10.4-11.8,10.5-11.8,10.5"/>
	</g>
	
		<g id="g1238" transform="matrix(2.4469912,0,0,-2.4469912,44.440247,41.81139)" inkscape:export-filename="C:\Users\suitedoalex\sites\mercado-pago-logo-7.png" inkscape:export-xdpi="7.1889887" inkscape:export-ydpi="7.1889887">
		<path id="path1240" inkscape:connector-curvature="0" class="st2" d="M-7.3,11.6c-0.1,0-0.2-0.1-0.2-0.1c0,0,0,0,0,0.1
			c0,0,0.2,0.5-0.2,0.6c-0.3,0.1-0.4,0-0.5-0.1c0,0,0,0,0,0c0,0.1,0,0.3-0.3,0.4c-0.3,0.1-0.5-0.1-0.6-0.2c0,0.2-0.2,0.3-0.4,0.3
			c-0.2,0-0.4-0.2-0.4-0.4s0.2-0.4,0.4-0.4c0.1,0,0.2,0,0.3,0.1c0,0,0,0,0,0c0-0.1,0-0.4,0.3-0.6c0.1-0.1,0.3,0,0.4,0.1c0,0,0,0,0,0
			c0-0.1,0-0.3,0.3-0.4c0.2-0.1,0.3,0,0.4,0.1c0,0,0,0,0,0c0-0.3,0.2-0.5,0.5-0.5c0.3,0,0.5,0.2,0.5,0.5
			C-6.9,11.4-7.1,11.6-7.3,11.6"/>
	</g>
	
		<g id="g1242" transform="matrix(2.4469912,0,0,-2.4469912,44.440247,47.075603)" inkscape:export-filename="C:\Users\suitedoalex\sites\mercado-pago-logo-7.png" inkscape:export-xdpi="7.1889887" inkscape:export-ydpi="7.1889887">
		<path id="path1244" inkscape:connector-curvature="0" class="st0" d="M-7.3,12.9c-0.2,0-0.4,0.2-0.4,0.4c0,0,0,0.1,0,0.1
			c0,0,0,0-0.1,0c-0.1-0.1-0.1-0.1-0.2-0.1c0,0-0.1,0-0.1,0c-0.3,0.1-0.3,0.3-0.2,0.4c0,0,0,0,0,0.1l0,0h0c0,0,0,0,0,0
			c-0.1-0.1-0.1-0.1-0.2-0.1c0,0-0.1,0-0.1,0c-0.3,0.1-0.3,0.4-0.3,0.5c0,0,0,0,0,0l0,0l0,0c-0.1-0.1-0.2-0.1-0.2-0.1
			c-0.2,0-0.4,0.2-0.4,0.4s0.2,0.4,0.4,0.4c0.2,0,0.3-0.1,0.3-0.3l0-0.1l0.1,0.1c0,0,0.1,0.2,0.4,0.2c0,0,0.1,0,0.2,0
			c0.2-0.1,0.2-0.3,0.2-0.3c0,0,0,0,0,0c0,0,0,0,0,0c0,0,0.1,0.1,0.3,0.1c0.1,0,0.1,0,0.2,0c0.3-0.1,0.2-0.6,0.2-0.6
			c0-0.1,0-0.1,0-0.1l0,0h0c0,0,0,0,0.1,0c0,0,0.1,0,0.2,0l0,0c0.2,0,0.4-0.2,0.4-0.4C-6.9,13.1-7.1,12.9-7.3,12.9 M-3.9,14.9
			c-0.5,0.5-1.8,1.6-2.1,1.8c-0.2,0.1-0.3,0.2-0.4,0.3c-0.1,0-0.1,0-0.2,0c-0.1,0-0.2,0-0.3,0c-0.2-0.1-0.4-0.2-0.6-0.4l0,0
			c-0.2-0.2-0.4-0.3-0.6-0.4c-0.1,0-0.1,0-0.2,0c-0.2,0-0.3,0.1-0.4,0.1c0,0,0,0,0,0.1v0l0.5,0.5c0.4,0.4,0.7,0.7,1.5,0.7
			c0,0,0,0,0,0c0.5,0,1-0.2,1.1-0.3c0.5-0.2,1-0.4,1.5-0.4c0.5,0,1,0.1,1.6,0.4c-0.1,0.1-0.1,0.1-0.2,0.2c-0.5-0.2-0.9-0.3-1.4-0.3
			c-0.5,0-0.9,0.1-1.4,0.3c0,0-0.6,0.3-1.2,0.3c0,0,0,0,0,0c-0.7,0-1.1-0.3-1.3-0.5c-0.3,0-0.5-0.1-0.7-0.1c-0.2,0-0.3-0.1-0.5-0.1
			c-0.1,0-0.2,0-0.2,0c-0.2,0-1,0.2-1.7,0.5c-0.1,0-0.1-0.1-0.2-0.2c0.7-0.3,1.5-0.5,1.8-0.5c0.1,0,0.2,0,0.2,0
			c0.2,0,0.4,0.1,0.5,0.1c0.1,0,0.2,0.1,0.3,0.1c0,0-0.1-0.1-0.1-0.1l-0.5-0.5c0,0-0.1-0.1-0.1-0.3c0-0.1,0.1-0.1,0.1-0.1
			c0.1-0.1,0.3-0.1,0.5-0.1c0.1,0,0.1,0,0.2,0c0.2,0,0.4,0.2,0.6,0.4c0.2,0.1,0.4,0.3,0.6,0.4c0.1,0,0.1,0,0.2,0c0,0,0,0,0,0
			c0.1,0,0.3-0.1,0.5-0.2c0.4-0.3,2.2-1.8,2.2-1.9c0,0,0.1-0.1,0.1-0.3c0-0.1-0.1-0.2-0.1-0.2c-0.1,0-0.2-0.1-0.2-0.1
			c-0.1,0-0.2,0.1-0.2,0.1c0,0-0.6,0.6-0.8,0.7c0,0-0.1,0.1-0.1,0.1c0,0,0,0,0,0c0,0,0-0.1,0.1-0.1l0.7-0.7c0,0,0.1-0.1,0.1-0.2
			c0-0.1-0.1-0.2-0.2-0.3c-0.1-0.1-0.2-0.1-0.3-0.1c-0.1,0-0.2,0-0.2,0.1l-0.1,0.1c-0.2,0.2-0.4,0.4-0.5,0.5c-0.1,0-0.1,0.1-0.1,0.1
			c0,0,0,0,0,0c0,0,0,0,0-0.1c0,0,0,0,0,0l0.5-0.6c0,0,0.1-0.1,0-0.2l0,0c0,0,0,0,0,0c-0.1-0.1-0.2-0.1-0.3-0.1c0,0,0,0-0.1,0
			c-0.1,0-0.1,0-0.1,0l0,0c0,0-0.3,0.3-0.5,0.5c0,0-0.1,0.1-0.1,0.1c0,0,0,0,0,0c0,0,0-0.1,0-0.1L-6,13c0,0,0,0,0,0
			c0,0-0.1-0.1-0.2-0.1c0,0,0,0-0.1,0c-0.2,0-0.3,0.1-0.4,0.1c0,0.1,0.1,0.2,0.1,0.3c0,0.4-0.3,0.7-0.7,0.7c0,0,0,0,0,0
			c0,0.2,0,0.5-0.3,0.6c-0.1,0-0.2,0.1-0.3,0.1c-0.1,0-0.1,0-0.2,0c-0.1,0.1-0.2,0.2-0.3,0.3c-0.1,0-0.1,0-0.2,0
			c-0.1,0-0.3,0-0.4-0.1C-9.2,14.9-9.4,15-9.5,15c-0.1,0-0.3-0.1-0.4-0.2c-0.1,0.1-0.7,0.4-2.1,0.8c-0.1,0-0.2,0.1-0.3,0.1
			c0-0.1,0-0.2,0-0.2c0,0,0.3-0.1,0.3-0.1c1.5-0.3,2-0.7,2.1-0.7c0-0.1,0-0.1,0-0.2c0-0.3,0.3-0.6,0.6-0.6c0,0,0.1,0,0.1,0
			c0-0.2,0.2-0.4,0.4-0.5c0.1,0,0.1,0,0.2,0c0,0,0.1,0,0.1,0c0-0.1,0.1-0.2,0.3-0.3c0.1,0,0.1,0,0.2,0c0.1,0,0.1,0,0.2,0
			c0.1-0.2,0.3-0.4,0.6-0.4c0.2,0,0.3,0.1,0.5,0.2c0.1-0.1,0.3-0.2,0.5-0.2c0,0,0.1,0,0.1,0c0.2,0,0.3,0.1,0.4,0.2c0,0,0,0,0,0
			c0.1,0,0.1,0,0.2,0c0.1,0,0.2,0,0.4,0.1c0.1,0.1,0.2,0.2,0.2,0.3c0,0,0,0,0,0c0,0,0.1,0,0.1,0c0.1,0,0.3,0,0.4,0.1
			c0.2,0.2,0.3,0.3,0.3,0.5c0,0,0.1,0,0.1,0c0.1,0,0.2,0,0.3,0.1c0.1,0.1,0.2,0.2,0.2,0.4c0,0.1,0,0.2-0.1,0.3
			c0.4,0.2,1.3,0.5,2.3,0.7c0,0.1,0,0.2,0,0.2C-2.7,15.4-3.6,15-3.9,14.9"/>
	</g>
</g>
<g>
	
		<g id="g1246" transform="matrix(2.4469912,0,0,-2.4469912,186.49711,28.536944)" inkscape:export-filename="C:\Users\suitedoalex\sites\mercado-pago-logo-7.png" inkscape:export-xdpi="7.1889887" inkscape:export-ydpi="7.1889887">
		<path id="path1248" inkscape:connector-curvature="0" class="st0" d="M-58,1c-0.1-0.1-0.2-0.2-0.4-0.2c-0.2,0-0.3,0.1-0.4,0.2
			c-0.1,0.1-0.1,0.3-0.1,0.5s0,0.4,0.1,0.5c0.1,0.1,0.2,0.2,0.4,0.2c0.2,0,0.3-0.1,0.4-0.2s0.1-0.3,0.1-0.5S-57.9,1.1-58,1
			 M-57.5,2.3c-0.2,0.2-0.4,0.3-0.8,0.3c-0.4,0-0.6-0.1-0.8-0.3s-0.3-0.5-0.3-0.8c0-0.3,0.1-0.6,0.3-0.8c0.2-0.2,0.4-0.3,0.8-0.3
			c0.4,0,0.6,0.1,0.8,0.3s0.3,0.5,0.3,0.8C-57.3,1.8-57.3,2.1-57.5,2.3"/>
	</g>
	
		<g id="g1250" transform="matrix(2.4469912,0,0,-2.4469912,157.71145,26.828201)" inkscape:export-filename="C:\Users\suitedoalex\sites\mercado-pago-logo-7.png" inkscape:export-xdpi="7.1889887" inkscape:export-ydpi="7.1889887">
		<path id="path1252" inkscape:connector-curvature="0" class="st0" d="M-50.5,0.6c0-0.2-0.1-0.3-0.2-0.4c-0.1-0.1-0.2-0.1-0.3-0.1
			c-0.1,0-0.1,0-0.2,0.1c-0.1,0-0.1,0.1-0.1,0.2c0,0.1,0,0.2,0.1,0.2c0.1,0,0.1,0.1,0.3,0.1l0.1,0c0.1,0,0.1,0,0.1,0
			c0,0,0.1,0,0.1,0.1V0.6z M-50.3,1.8c-0.2,0.1-0.4,0.1-0.6,0.1c-0.4,0-0.6-0.1-0.8-0.3c-0.1-0.1-0.1-0.3-0.2-0.5h0.5
			c0,0.1,0,0.1,0.1,0.2c0.1,0.1,0.2,0.1,0.3,0.1c0.1,0,0.2,0,0.3-0.1c0.1,0,0.1-0.1,0.1-0.2c0-0.1,0-0.1-0.1-0.2c0,0-0.1,0-0.2,0
			l-0.2,0c-0.2,0-0.4-0.1-0.5-0.1c-0.2-0.1-0.3-0.3-0.3-0.6c0-0.2,0.1-0.4,0.2-0.5c0.1-0.1,0.3-0.2,0.5-0.2C-50-0.4-50,0.3-50,0.5
			v0.8C-50,1.5-50.1,1.7-50.3,1.8"/>
	</g>
	
		<g id="g1254" transform="matrix(2.4469912,0,0,-2.4469912,141.49301,21.121823)" inkscape:export-filename="C:\Users\suitedoalex\sites\mercado-pago-logo-7.png" inkscape:export-xdpi="7.1889887" inkscape:export-ydpi="7.1889887">
		<path id="path1256" inkscape:connector-curvature="0" class="st0" d="M-46.4-0.9c0.1,0,0.2,0,0.3-0.1c0-0.1,0.1-0.1,0.1-0.2h0.6
			c0,0.3-0.1,0.5-0.3,0.6s-0.4,0.2-0.7,0.2c-0.3,0-0.6-0.1-0.8-0.3s-0.3-0.5-0.3-0.8c0-0.3,0.1-0.6,0.2-0.8c0.2-0.2,0.4-0.3,0.8-0.3
			s0.6,0.1,0.8,0.4c0.1,0.2,0.2,0.3,0.2,0.5H-46c0-0.1,0-0.2-0.1-0.3c-0.1-0.1-0.2-0.1-0.3-0.1c-0.2,0-0.3,0.1-0.4,0.3
			c0,0.1-0.1,0.2-0.1,0.4c0,0.2,0,0.3,0.1,0.4C-46.7-1-46.6-0.9-46.4-0.9"/>
	</g>
	
		<g id="g1258" transform="matrix(2.4469912,0,0,-2.4469912,133.4424,18.063078)" inkscape:export-filename="C:\Users\suitedoalex\sites\mercado-pago-logo-7.png" inkscape:export-xdpi="7.1889887" inkscape:export-ydpi="7.1889887">
		<path id="path1260" inkscape:connector-curvature="0" class="st0" d="M-44.3-1.7c-1.2,0-1.1-1.1-1.1-1.1v-1.1h0.5v1
			c0,0.2,0,0.3,0.1,0.4c0.1,0.1,0.2,0.2,0.4,0.2c0,0,0,0,0.1,0s0.1,0,0.1,0L-44.3-1.7C-44.3-1.7-44.3-1.7-44.3-1.7
			C-44.3-1.7-44.3-1.7-44.3-1.7"/>
	</g>
	
		<g id="g1262" transform="matrix(2.4469912,0,0,-2.4469912,115.17121,21.833902)" inkscape:export-filename="C:\Users\suitedoalex\sites\mercado-pago-logo-7.png" inkscape:export-xdpi="7.1889887" inkscape:export-ydpi="7.1889887">
		<path id="path1264" inkscape:connector-curvature="0" class="st0" d="M-39.6-0.7c0.1,0.1,0.2,0.1,0.3,0.1c0.1,0,0.2,0,0.3-0.1
			c0.1-0.1,0.1-0.2,0.1-0.3h-0.9C-39.7-0.9-39.7-0.8-39.6-0.7 M-38.9-1.7C-38.9-1.8-38.9-1.8-38.9-1.7c-0.2-0.2-0.3-0.2-0.4-0.2
			c-0.1,0-0.2,0-0.3,0.1c-0.1,0.1-0.2,0.2-0.2,0.4h1.5c0,0.2,0,0.3,0,0.4c0,0.2-0.1,0.3-0.2,0.4c-0.1,0.1-0.2,0.2-0.4,0.3
			s-0.3,0.1-0.5,0.1c-0.3,0-0.6-0.1-0.8-0.3c-0.2-0.2-0.3-0.5-0.3-0.8c0-0.4,0.1-0.7,0.3-0.8s0.5-0.3,0.7-0.3c0.3,0,0.6,0.1,0.8,0.3
			c0.1,0.1,0.2,0.2,0.2,0.3L-38.9-1.7L-38.9-1.7z"/>
	</g>
	
		<g id="g1266" transform="matrix(2.4469912,0,0,-2.4469912,109.01312,32.384109)" inkscape:export-filename="C:\Users\suitedoalex\sites\mercado-pago-logo-7.png" inkscape:export-xdpi="7.1889887" inkscape:export-ydpi="7.1889887">
		<path id="path1268" inkscape:connector-curvature="0" class="st0" d="M-38,2h-0.5v1.3c0,0.1,0,0.4-0.4,0.4c-0.2,0-0.4-0.2-0.4-0.4
			V2h-0.5v1.3c0,0.1,0,0.4-0.4,0.4c-0.2,0-0.4-0.2-0.4-0.4V2H-41v1.3c0,0.5,0.3,0.9,0.9,0.9c0.3,0,0.5-0.1,0.6-0.3
			c0.2,0.2,0.4,0.3,0.6,0.3c0.5,0,0.9-0.4,0.9-0.9V2z"/>
	</g>
	
		<g id="g1270" transform="matrix(2.4469912,0,0,-2.4469912,171.55239,28.56557)" inkscape:export-filename="C:\Users\suitedoalex\sites\mercado-pago-logo-7.png" inkscape:export-xdpi="7.1889887" inkscape:export-ydpi="7.1889887">
		<path id="path1272" inkscape:connector-curvature="0" class="st0" d="M-54.1,1c-0.1-0.1-0.2-0.2-0.4-0.2s-0.3,0.1-0.3,0.2
			c-0.1,0.1-0.1,0.3-0.1,0.5c0,0.2,0,0.3,0.1,0.5c0.1,0.1,0.2,0.2,0.4,0.2c0.1,0,0.2,0,0.3-0.1C-54,1.9-54,1.7-54,1.5
			C-54,1.3-54,1.1-54.1,1 M-53.4,3.3c0,0-0.6,0.1-0.6-0.4V2.3c-0.1,0.1-0.1,0.2-0.2,0.2c-0.1,0.1-0.2,0.1-0.3,0.1
			c-0.3,0-0.5-0.1-0.7-0.3s-0.2-0.5-0.2-0.9c0-0.3,0.1-0.6,0.2-0.8c0.2-0.2,0.5-0.3,0.8-0.3c1,0,1,0.9,1,0.9L-53.4,3.3z"/>
	</g>
</g>
<g>
	
		<g id="g1274" transform="matrix(2.4469912,0,0,-2.4469912,98.857117,45.644349)" inkscape:export-filename="C:\Users\suitedoalex\sites\mercado-pago-logo-7.png" inkscape:export-xdpi="7.1889887" inkscape:export-ydpi="7.1889887">
		<path id="path1276" inkscape:connector-curvature="0" class="st1" d="M-32,5.4c0,0.2,0,0.4-0.1,0.5c-0.1,0.1-0.2,0.2-0.3,0.2
			c-0.1,0-0.3-0.1-0.3-0.2c-0.1-0.1-0.1-0.3-0.1-0.5c0-0.2,0-0.4,0.1-0.5c0.1-0.1,0.2-0.2,0.3-0.2c0.1,0,0.2,0.1,0.3,0.2
			C-32,5.1-32,5.2-32,5.4 M-32.9,3.9c0-0.1,0-0.1-0.1-0.2c-0.1,0-0.1-0.1-0.2-0.1h-0.3v1.9c0,0.4,0.1,0.6,0.3,0.8
			c0.2,0.1,0.4,0.2,0.8,0.2c0.2,0,0.5-0.1,0.6-0.3c0.2-0.2,0.3-0.5,0.3-0.8c0-0.3-0.1-0.6-0.2-0.8c-0.2-0.2-0.4-0.3-0.6-0.3
			c-0.1,0-0.3,0-0.4,0.1c-0.1,0.1-0.2,0.1-0.3,0.2V3.9L-32.9,3.9z"/>
	</g>
	
		<g id="g1278" transform="matrix(2.4469912,0,0,-2.4469912,120.68159,45.646791)" inkscape:export-filename="C:\Users\suitedoalex\sites\mercado-pago-logo-7.png" inkscape:export-xdpi="7.1889887" inkscape:export-ydpi="7.1889887">
		<path id="path1280" inkscape:connector-curvature="0" class="st1" d="M-37.6,5.4c0-0.4,0.1-0.6,0.3-0.6c0.2,0,0.4,0,0.5,0.2
			c0,0.1,0.1,0.2,0.1,0.3c0,0.1,0,0.2,0,0.4c0,0.1-0.1,0.2-0.1,0.3C-36.9,6-37,6.1-37.1,6.1c-0.2,0-0.3-0.1-0.4-0.2
			C-37.6,5.7-37.6,5.6-37.6,5.4 M-36.7,4.5v0.1c-0.1-0.2-0.2-0.2-0.4-0.3c-0.2,0-0.3,0-0.5,0c-0.2,0.1-0.3,0.2-0.4,0.4
			c-0.1,0.2-0.2,0.4-0.2,0.7c0,0.3,0.1,0.6,0.2,0.8c0.2,0.2,0.4,0.3,0.7,0.3c0.3,0,0.5-0.1,0.7-0.2c0.2-0.2,0.3-0.4,0.3-0.8V4.4
			c0-0.4-0.2-1-1-1c-0.5,0-0.8,0.2-0.9,0.7h0.6c0-0.1,0.1-0.1,0.2-0.2c0.1,0,0.2-0.1,0.3,0c0.1,0,0.2,0.1,0.2,0.2
			C-36.7,4.2-36.7,4.3-36.7,4.5"/>
	</g>
	
		<g id="g1282" transform="matrix(2.4469912,0,0,-2.4469912,112.15314,47.11401)" inkscape:export-filename="C:\Users\suitedoalex\sites\mercado-pago-logo-7.png" inkscape:export-xdpi="7.1889887" inkscape:export-ydpi="7.1889887">
		<path id="path1284" inkscape:connector-curvature="0" class="st1" d="M-35.4,5.8c0-0.2-0.1-0.3-0.2-0.4c-0.1-0.1-0.2-0.1-0.3-0.1
			c-0.1,0-0.1,0-0.2,0.1c-0.1,0-0.1,0.1-0.1,0.2c0,0.1,0,0.2,0.1,0.2c0.1,0,0.1,0.1,0.3,0.1l0.1,0c0.1,0,0.1,0,0.1,0
			c0,0,0.1,0,0.1,0.1L-35.4,5.8L-35.4,5.8z M-35.1,7c-0.2,0.1-0.4,0.1-0.6,0.1c-0.4,0-0.6-0.1-0.8-0.3c-0.1-0.1-0.1-0.3-0.2-0.5h0.5
			c0,0.1,0,0.1,0.1,0.2c0.1,0.1,0.2,0.1,0.3,0.1c0.1,0,0.2,0,0.3-0.1c0.1,0,0.1-0.1,0.1-0.2c0-0.1,0-0.1-0.1-0.2c0,0-0.1,0-0.2,0
			l-0.2,0c-0.2,0-0.4-0.1-0.5-0.1c-0.2-0.1-0.3-0.3-0.3-0.6c0-0.2,0.1-0.4,0.2-0.5c0.1-0.1,0.3-0.2,0.5-0.2c1.2-0.1,1.2,0.6,1.2,0.8
			v0.8C-34.8,6.7-34.9,6.9-35.1,7"/>
	</g>
	
		<g id="g1286" transform="matrix(2.4469912,0,0,-2.4469912,141.13211,48.743706)" inkscape:export-filename="C:\Users\suitedoalex\sites\mercado-pago-logo-7.png" inkscape:export-xdpi="7.1889887" inkscape:export-ydpi="7.1889887">
		<path id="path1288" inkscape:connector-curvature="0" class="st1" d="M-42.9,6.2C-42.9,6.1-43.1,6-43.2,6c-0.2,0-0.3,0.1-0.4,0.2
			c-0.1,0.1-0.1,0.3-0.1,0.5c0,0.2,0,0.4,0.1,0.5s0.2,0.2,0.4,0.2c0.2,0,0.3-0.1,0.4-0.2c0.1-0.1,0.1-0.3,0.1-0.5
			C-42.7,6.5-42.8,6.3-42.9,6.2 M-42.4,7.5c-0.2,0.2-0.4,0.3-0.8,0.3c-0.4,0-0.6-0.1-0.8-0.3c-0.2-0.2-0.3-0.5-0.3-0.8
			c0-0.3,0.1-0.6,0.3-0.8c0.2-0.2,0.4-0.3,0.8-0.3c0.4,0,0.6,0.1,0.8,0.3s0.3,0.5,0.3,0.8C-42.1,7-42.2,7.3-42.4,7.5"/>
	</g>
</g>
</svg>
