<?xml version="1.0" encoding="utf-8"?>
<!-- Generator: Adobe Illustrator 25.4.1, SVG Export Plug-In . SVG Version: 6.00 Build 0)  -->
<svg version="1.1"
	 id="svg859" xmlns:cc="http://creativecommons.org/ns#" xmlns:dc="http://purl.org/dc/elements/1.1/" xmlns:rdf="http://www.w3.org/1999/02/22-rdf-syntax-ns#" xmlns:svg="http://www.w3.org/2000/svg"
	 xmlns="http://www.w3.org/2000/svg" xmlns:xlink="http://www.w3.org/1999/xlink" x="0px" y="0px" width="55px" height="38px"
	 viewBox="0 0 55 38" style="enable-background:new 0 0 55 38;" xml:space="preserve">
<style type="text/css">
	.st0{fill:#32BCAD;}
	.st1{fill:#939598;}
	.st2{fill:#C4901C;}
	.st3{fill:#1EC1C1;}
</style>
<g>
	<g>
		<path id="path2364" class="st0" d="M36.7,11.4L36,10.8c-0.2-0.2-0.2-0.4,0-0.6l0.6-0.6c0.2-0.2,0.4-0.2,0.6,0l0.6,0.6
			c0.2,0.2,0.2,0.4,0,0.6l-0.6,0.6C37.1,11.6,36.8,11.6,36.7,11.4"/>
		<path id="path2376" class="st0" d="M14.2,24.5c-0.7,0-1.4-0.3-1.9-0.8L9.6,21c-0.2-0.2-0.5-0.2-0.7,0l-2.7,2.7
			c-0.5,0.5-1.2,0.8-1.9,0.8H3.8l3.4,3.4c1.1,1.1,2.8,1.1,3.9,0l3.4-3.4H14.2z"/>
		<path id="path2380" class="st0" d="M4.4,15c0.7,0,1.4,0.3,1.9,0.8l2.7,2.7c0.2,0.2,0.5,0.2,0.7,0l2.7-2.7c0.5-0.5,1.2-0.8,1.9-0.8
			h0.3l-3.4-3.4c-1.1-1.1-2.8-1.1-3.9,0L3.8,15L4.4,15z"/>
		<path id="path2384" class="st0" d="M17.3,17.8l-2.1-2.1c0,0-0.1,0-0.1,0h-0.9c-0.5,0-1,0.2-1.3,0.5L10.2,19
			c-0.3,0.3-0.6,0.4-0.9,0.4c-0.3,0-0.7-0.1-0.9-0.4l-2.7-2.7c-0.3-0.3-0.8-0.5-1.3-0.5H3.2c0,0-0.1,0-0.1,0L1,17.8
			c-1.1,1.1-1.1,2.8,0,3.9l2.1,2.1c0,0,0.1,0,0.1,0h1.2c0.5,0,1-0.2,1.3-0.5l2.7-2.7c0.5-0.5,1.3-0.5,1.8,0l2.7,2.7
			c0.3,0.3,0.8,0.5,1.3,0.5h0.9c0.1,0,0.1,0,0.1,0l2.1-2.1C18.4,20.6,18.4,18.9,17.3,17.8"/>
		<path id="path2388" class="st1" d="M25.3,26.5c-0.2,0-0.3,0-0.5,0.1v0.7c0.1,0,0.3,0.1,0.4,0.1c0.3,0,0.5-0.1,0.5-0.4
			C25.7,26.6,25.6,26.5,25.3,26.5L25.3,26.5z M24.7,27.7v-1.3h0.1l0,0.1c0.2,0,0.4-0.1,0.5-0.1c0.1,0,0.2,0,0.3,0.1
			c0.1,0.1,0.2,0.2,0.2,0.4c0,0.2-0.1,0.3-0.2,0.4c-0.1,0.1-0.3,0.1-0.4,0.1c-0.1,0-0.3,0-0.4-0.1v0.4H24.7z"/>
		<path id="path2392" class="st1" d="M26.7,26.5c-0.3,0-0.5,0.1-0.5,0.4c0,0.3,0.1,0.4,0.5,0.4c0.3,0,0.5-0.1,0.5-0.4
			C27.2,26.6,27,26.5,26.7,26.5L26.7,26.5z M27.1,27.3c-0.1,0.1-0.3,0.1-0.4,0.1c-0.2,0-0.3,0-0.4-0.1c-0.1-0.1-0.2-0.2-0.2-0.4
			c0-0.2,0.1-0.3,0.2-0.4c0.1-0.1,0.3-0.1,0.4-0.1c0.2,0,0.3,0,0.4,0.1c0.1,0.1,0.2,0.2,0.2,0.4C27.3,27.1,27.3,27.2,27.1,27.3
			L27.1,27.3z"/>
		<path id="path2396" class="st1" d="M28.7,27.4l-0.4-0.8h0L28,27.4h-0.1l-0.4-1h0.1l0.3,0.8h0l0.4-0.8h0.1l0.4,0.8h0l0.3-0.8h0.1
			l-0.4,1H28.7z"/>
		<path id="path2400" class="st1" d="M30,26.5c-0.3,0-0.4,0.1-0.4,0.3h0.9C30.4,26.6,30.3,26.5,30,26.5L30,26.5z M30,27.4
			c-0.2,0-0.3,0-0.4-0.1c-0.1-0.1-0.2-0.2-0.2-0.4c0-0.2,0.1-0.3,0.2-0.4c0.1-0.1,0.2-0.1,0.4-0.1c0.1,0,0.3,0,0.4,0.1
			c0.1,0.1,0.2,0.3,0.2,0.4h-1c0,0.2,0.1,0.4,0.4,0.4c0.2,0,0.3,0,0.5-0.1v0.1C30.3,27.4,30.1,27.4,30,27.4L30,27.4z"/>
		<path id="path2404" class="st1" d="M30.8,27.4v-1h0.1l0,0.1c0.2-0.1,0.3-0.1,0.5-0.1h0v0.1h0c-0.2,0-0.2,0-0.5,0.1v0.8L30.8,27.4z
			"/>
		<path id="path2408" class="st1" d="M32.1,26.5c-0.3,0-0.4,0.1-0.4,0.3h0.9C32.5,26.6,32.4,26.5,32.1,26.5L32.1,26.5z M32.1,27.4
			c-0.2,0-0.3,0-0.4-0.1c-0.1-0.1-0.2-0.2-0.2-0.4c0-0.2,0.1-0.3,0.2-0.4c0.1-0.1,0.2-0.1,0.4-0.1c0.1,0,0.3,0,0.4,0.1
			c0.1,0.1,0.2,0.3,0.2,0.4h-1c0,0.2,0.1,0.4,0.4,0.4c0.2,0,0.3,0,0.5-0.1v0.1C32.4,27.4,32.3,27.4,32.1,27.4L32.1,27.4z"/>
		<path id="path2412" class="st1" d="M33.9,26.6c-0.1,0-0.3-0.1-0.4-0.1c-0.3,0-0.5,0.1-0.5,0.4c0,0.3,0.1,0.4,0.4,0.4
			c0.2,0,0.3,0,0.5-0.1V26.6z M33.9,27.4L33.9,27.4c-0.2,0-0.4,0-0.5,0c-0.1,0-0.2,0-0.3-0.1c-0.1-0.1-0.2-0.2-0.2-0.4
			c0-0.2,0.1-0.3,0.2-0.4c0.1-0.1,0.3-0.1,0.4-0.1c0.1,0,0.3,0,0.4,0.1V26H34L33.9,27.4L33.9,27.4z"/>
		<path id="path2416" class="st1" d="M35.7,26.5c-0.2,0-0.3,0-0.5,0.1v0.7c0.1,0,0.3,0.1,0.4,0.1c0.3,0,0.5-0.1,0.5-0.4
			C36.1,26.6,35.9,26.5,35.7,26.5L35.7,26.5z M36,27.3c-0.1,0.1-0.3,0.1-0.4,0.1c-0.1,0-0.3,0-0.4-0.1l0,0h-0.1V26h0.1v0.5
			c0.2,0,0.4-0.1,0.5-0.1c0.1,0,0.2,0,0.3,0.1c0.1,0.1,0.2,0.2,0.2,0.4C36.2,27.1,36.1,27.2,36,27.3L36,27.3z"/>
		<path id="path2420" class="st1" d="M36.3,27.8v-0.1c0.1,0,0.1,0,0.1,0c0.1,0,0.2,0,0.3-0.2l0-0.1l-0.5-1h0.1l0.4,0.8h0l0.4-0.8
			h0.1l-0.5,1.1c-0.1,0.2-0.2,0.3-0.4,0.3C36.4,27.8,36.4,27.8,36.3,27.8L36.3,27.8z"/>
		<path id="path2424" class="st1" d="M39,26.8h-0.4v0.3H39c0.3,0,0.4,0,0.4-0.2C39.4,26.8,39.2,26.8,39,26.8L39,26.8z M38.9,26.3
			h-0.3v0.3h0.3c0.3,0,0.4,0,0.4-0.2C39.3,26.3,39.2,26.3,38.9,26.3L38.9,26.3z M39.5,27.3c-0.1,0.1-0.3,0.1-0.6,0.1h-0.6v-1.3h0.6
			c0.3,0,0.4,0,0.6,0.1c0.1,0.1,0.1,0.1,0.1,0.3c0,0.1-0.1,0.2-0.2,0.3v0c0.2,0,0.3,0.1,0.3,0.3C39.7,27.2,39.6,27.2,39.5,27.3
			L39.5,27.3z"/>
		<path id="path2428" class="st1" d="M40.8,27c-0.1,0-0.2,0-0.4,0c-0.2,0-0.3,0-0.3,0.1c0,0.1,0.1,0.1,0.2,0.1c0.1,0,0.3,0,0.4-0.1
			L40.8,27z M40.9,27.4L40.9,27.4c-0.2,0-0.4,0-0.5,0c-0.1,0-0.2,0-0.3-0.1c-0.1-0.1-0.1-0.1-0.1-0.2c0-0.1,0-0.2,0.2-0.3
			c0.1,0,0.2-0.1,0.4-0.1c0.1,0,0.2,0,0.4,0v0c0-0.2-0.1-0.2-0.4-0.2c-0.1,0-0.2,0-0.4,0v-0.2c0.1,0,0.3,0,0.4,0
			c0.2,0,0.3,0,0.5,0.1c0.1,0.1,0.1,0.2,0.1,0.3v0.6L40.9,27.4z"/>
		<path id="path2432" class="st1" d="M42.4,27.4v-0.5c0-0.2-0.1-0.2-0.3-0.2c-0.1,0-0.3,0-0.4,0.1v0.7h-0.3v-1h0.2l0,0.1
			c0.2,0,0.4-0.1,0.5-0.1c0.1,0,0.2,0,0.3,0.1c0.1,0.1,0.1,0.2,0.1,0.3v0.6L42.4,27.4z"/>
		<path id="path2436" class="st1" d="M43.4,27.4c-0.1,0-0.3,0-0.4-0.1c-0.1-0.1-0.2-0.2-0.2-0.4c0-0.2,0.1-0.3,0.2-0.4
			c0.1-0.1,0.3-0.1,0.4-0.1c0.1,0,0.2,0,0.3,0v0.2c-0.1,0-0.2,0-0.3,0c-0.3,0-0.4,0.1-0.4,0.3c0,0.2,0.1,0.3,0.3,0.3
			c0.1,0,0.3,0,0.4-0.1v0.2C43.7,27.4,43.6,27.4,43.4,27.4L43.4,27.4z"/>
		<path id="path2440" class="st1" d="M44.7,26.6c-0.3,0-0.4,0.1-0.4,0.3c0,0.2,0.1,0.3,0.4,0.3c0.3,0,0.4-0.1,0.4-0.3
			C45,26.7,44.9,26.6,44.7,26.6L44.7,26.6z M45.1,27.3c-0.1,0.1-0.3,0.1-0.5,0.1c-0.2,0-0.4,0-0.5-0.1c-0.1-0.1-0.2-0.2-0.2-0.4
			c0-0.2,0-0.3,0.2-0.4c0.1-0.1,0.3-0.1,0.5-0.1c0.2,0,0.3,0,0.5,0.1c0.1,0.1,0.2,0.2,0.2,0.4C45.3,27.1,45.3,27.2,45.1,27.3
			L45.1,27.3z"/>
		<path id="path2444" class="st1" d="M46.9,27.4c-0.2,0-0.3,0-0.5-0.1c-0.2-0.1-0.2-0.3-0.2-0.6c0-0.2,0.1-0.4,0.3-0.6
			c0.2-0.1,0.4-0.1,0.6-0.1c0.1,0,0.3,0,0.5,0v0.2c-0.1,0-0.3,0-0.4,0c-0.4,0-0.5,0.1-0.5,0.4c0,0.3,0.1,0.4,0.4,0.4
			c0.2,0,0.4,0,0.6-0.1v0.2C47.3,27.4,47.1,27.4,46.9,27.4L46.9,27.4z"/>
		<path id="path2448" class="st1" d="M48.3,26.6c-0.2,0-0.3,0.1-0.3,0.2h0.7C48.6,26.6,48.5,26.6,48.3,26.6L48.3,26.6z M48.3,27.4
			c-0.2,0-0.3,0-0.4-0.1c-0.1-0.1-0.2-0.2-0.2-0.4c0-0.1,0-0.3,0.2-0.4c0.1-0.1,0.3-0.1,0.4-0.1c0.1,0,0.3,0,0.4,0.1
			c0.2,0.1,0.2,0.3,0.2,0.5H48c0,0.1,0.1,0.2,0.4,0.2c0.2,0,0.4,0,0.5-0.1v0.2C48.7,27.4,48.5,27.4,48.3,27.4L48.3,27.4z"/>
		<path id="path2452" class="st1" d="M50.1,27.4v-0.5c0-0.2-0.1-0.2-0.3-0.2c-0.1,0-0.3,0-0.4,0.1v0.7h-0.3v-1h0.2l0,0.1
			c0.2,0,0.4-0.1,0.5-0.1c0.1,0,0.2,0,0.3,0.1c0.1,0.1,0.1,0.2,0.1,0.3v0.6L50.1,27.4z"/>
		<path id="path2456" class="st1" d="M51.2,27.4c-0.1,0-0.3,0-0.3-0.1c0-0.1-0.1-0.2-0.1-0.3v-0.4h-0.2v-0.2h0.2l0-0.3h0.2v0.3h0.4
			v0.2h-0.4v0.3c0,0.1,0,0.1,0,0.2c0,0.1,0.1,0.1,0.2,0.1c0.1,0,0.1,0,0.2,0v0.2C51.4,27.4,51.3,27.4,51.2,27.4L51.2,27.4z"/>
		<path id="path2460" class="st1" d="M51.7,27.4v-1h0.2l0,0.1c0.2-0.1,0.3-0.1,0.5-0.1c0,0,0,0,0,0v0.2c0,0-0.1,0-0.1,0
			c-0.1,0-0.2,0-0.4,0.1v0.7L51.7,27.4z"/>
		<path id="path2464" class="st1" d="M53.4,27c-0.1,0-0.2,0-0.4,0c-0.2,0-0.3,0-0.3,0.1c0,0.1,0.1,0.1,0.2,0.1c0.1,0,0.3,0,0.4-0.1
			L53.4,27z M53.5,27.4L53.5,27.4c-0.2,0-0.4,0-0.5,0c-0.1,0-0.2,0-0.3-0.1c-0.1-0.1-0.1-0.1-0.1-0.2c0-0.1,0-0.2,0.2-0.3
			c0.1,0,0.2-0.1,0.4-0.1c0.1,0,0.2,0,0.4,0v0c0-0.2-0.1-0.2-0.4-0.2c-0.1,0-0.2,0-0.4,0v-0.2c0.1,0,0.3,0,0.4,0
			c0.2,0,0.3,0,0.5,0.1c0.1,0.1,0.1,0.2,0.1,0.3v0.6L53.5,27.4z"/>
		<path id="path2466" class="st1" d="M54.1,26h0.3v1.4h-0.3V26z"/>
		<path class="st2" d="M46.2,17.6C46.2,17.6,46.2,17.6,46.2,17.6C46.2,17.6,46.2,17.6,46.2,17.6C46.2,17.6,46.2,17.6,46.2,17.6
			C46.2,17.6,46.2,17.6,46.2,17.6z"/>
		<path class="st3" d="M46.2,17.5C46.2,17.5,46.2,17.5,46.2,17.5C46.2,17.5,46.2,17.5,46.2,17.5C46.2,17.6,46.2,17.5,46.2,17.5
			C46.2,17.5,46.2,17.5,46.2,17.5z"/>
	</g>
	<g>
		<path class="st1" d="M33.8,18.7c0,0,0.1,3.6-3.8,4.3l0-0.1c-0.1,0-0.2,0.1-0.3,0.1h-4.9c-0.3,0-0.6-0.3-0.6-0.6
			c0-0.3,0.3-0.6,0.6-0.6h4.9c0,0,0.1,0,0.1,0c0.3,0,2.6-0.4,2.7-3.2v-2c-0.1-3.1-2.7-3.2-2.7-3.2s0,0-0.2,0h-3.6
			c0,0-2.6,0.2-2.7,3.2v10.9c0,0.3-0.3,0.6-0.6,0.6c-0.3,0-0.6-0.3-0.6-0.6V16.6c0-0.1,0-0.1,0-0.1l0,0c0,0-0.1-3.6,3.8-4.3
			c0,0,0.1,0,0.1,0h3.7c0,0,0,0,0.1,0v0l0.4,0c3.7,0.7,3.8,3.8,3.8,4.3c0,0,0,0.1,0,0.1v2.2C33.8,18.6,33.8,18.7,33.8,18.7
			L33.8,18.7z"/>
		<path class="st1" d="M54.8,22.4c0,0.3-0.3,0.6-0.6,0.6h-1.6c0,0-0.1,0-0.1,0h0l-0.3-0.1c0,0-0.6-0.1-1.2-0.6l0,0l-0.4-0.4
			l-2.2-2.2c0,0,0,0,0,0c0,0,0,0-0.1,0c0,0,0,0,0,0l-0.9-0.9c0,0,0,0,0,0c0,0,0,0-0.1-0.1c0,0-0.1-0.1-0.2-0.1c0,0,0,0,0,0
			c-0.1,0-0.2,0-0.3,0.1c0,0,0,0,0,0s0,0,0,0l0,0c0,0,0,0-0.1,0l-1,1L43.5,22c-0.9,1-2.2,1.1-2.2,1.1v0c0,0,0,0-0.1,0h-1.6
			c-0.2,0-0.3-0.1-0.4-0.2c-0.1-0.1-0.2-0.3-0.2-0.4c0-0.3,0.3-0.6,0.6-0.6h1.6c0.8-0.1,1.4-0.7,1.4-0.7l2.3-2.3l0,0l1.1-1.1
			c0.1-0.1,0.1-0.1,0.2-0.1c0,0,0,0,0,0c0,0,0,0,0,0c0,0,0,0,0,0c0,0,0,0,0,0c-0.1,0-0.2-0.1-0.2-0.1l-1.1-1.1l0,0L42.6,14
			c0,0-0.5-0.6-1.4-0.7h-1.6c-0.3,0-0.6-0.3-0.6-0.6c0-0.2,0.1-0.3,0.2-0.4c0.1-0.1,0.3-0.2,0.4-0.2h1.6c0,0,0,0,0.1,0v0
			c0,0,1.3,0,2.2,1.1l2.2,2.2l0.1,0.1l0.9,0.9c0,0,0,0,0.1,0l0,0c0,0,0,0,0,0c0,0,0,0,0,0c0,0,0.1,0.1,0.3,0.1c0,0,0,0,0,0
			c0.1,0,0.2,0,0.2-0.1c0,0,0.1-0.1,0.1-0.1c0,0,0,0,0,0l0.9-0.9c0,0,0,0,0,0c0,0,0,0,0.1,0c0,0,0,0,0,0l2.2-2.2l0.4-0.4l0,0
			c0.6-0.4,1.2-0.6,1.2-0.6l0.3-0.1h0c0,0,0.1,0,0.1,0h1.6c0.3,0,0.6,0.3,0.6,0.6c0,0,0,0.1,0,0.1c0,0.3-0.3,0.6-0.7,0.6h-1.3
			c-0.7,0-1.2,0.5-1.2,0.5l-2.5,2.5l-1.1,1.1c-0.1,0.1-0.1,0.1-0.2,0.1c0,0,0,0,0,0c0,0,0,0,0,0c0.1,0,0.1,0.1,0.2,0.1l1.1,1.1
			l2.5,2.5c0,0,0.5,0.5,1.2,0.5h1.3c0.3,0,0.6,0.2,0.7,0.6C54.8,22.4,54.8,22.4,54.8,22.4z"/>
		<path class="st1" d="M37.6,14.2v8.3c0,0.3-0.3,0.6-0.6,0.6c-0.3,0-0.6-0.3-0.6-0.6v-8.3c-0.1-0.8-0.8-0.9-0.8-0.9H34
			c-0.3,0-0.6-0.3-0.6-0.6c0-0.3,0.3-0.6,0.6-0.6h1.6c0,0,0,0,0.1,0l0,0c1.9,0.4,1.9,2,1.9,2C37.6,14.1,37.6,14.1,37.6,14.2z"/>
	</g>
</g>
</svg>
